<svg host="65bd71144e" xmlns="http://www.w3.org/2000/svg" style="background: #ffffff; background-color: light-dark(#ffffff, #121212);" xmlns:xlink="http://www.w3.org/1999/xlink" version="1.1" width="1086px" height="790px" viewBox="-0.5 -0.5 1086 790" content="&lt;mxfile&gt;&lt;diagram id=&quot;mJcjpzEJN0o-3Fq05xRy&quot; name=&quot;Page-1&quot;&gt;7Zxbc9o4FIB/DTPtQzOW7zyCgWxnurOZsNPuPjHCFuCJQKwtk9Bfv5Itg2WJAg3QplWSSaxjWZfj852jW+g40fLlPoPrxZ8kQbhjW8lLxxl0bLvrBOw3F2wrged0K8E8S5NKZO0F4/QrqoSglhZpgnIhq0SUEEzTtSyMyWqFYirJYJaRZznbjOBEEqzhHCmCcQyxKv2SJnQhpMDv7m/8gdL5QlQd2qLDUxg/zTNSrER9HduZlV/V7SWsyxIdzRcwIc8NkTPsOFFGCK2uli8Rwly1stpGB+7u2p2hFT3lAbt6YANxIbre+zJmggiTIhFNpNtaLWuSrmipWq/PfljRkdXx2J2Ip+5sryVopwNZANQUL0MWtNOBLADt4kGrftBuYEOgpKTirVb9VqOB7Mfpk4LidIWinRFaTDjPYJIy7UcEk4zJVmTFtNdf0CVmKcAunxcpReM1jLlWnxk/TDYjKyowAHadFornpTJDp5DVlYkyyjeBsuEGVS+kyoMxXOfpdPdUhuIiy9MNekR5VTiXMptb8+vly5zDewefc/eOG+26bP5HVpf27oRdTmJuGBOIKS+IZuQJ1R1lps6+R9zO+rMU45YCNiijKSOsh9M5L58SXh0UKYxmZYlMK+lq/qlMDRxLaEJXRQLzBUpEl1SzFyTwWtFLQyQwuEdkiWi2ZVnqu55fPSJcFgir5POe/67vVbJFA/0gFD4BCp8z3xW9545dCPT0GHoKhp8fIoOfwa+J32Yda6FzwxC4V4Wu1+sH/fA4dPb50AUydKwjbeoC31Gp870LUBcq1D1k6QZSxLErpitEDYIGwSaCOS8updvJPvO45LEuuA0ncINhv9eCk8mH/sgehZcjdFfPEUK9cwl1gEyo5ymAuvVgtgmoF3qvB9S11OFpQQmT8LE600g5geBvwnD6e3EaIV7osfEqs5VJXlmKjligI3YQ+j5wviecxnWbWmzuStyxCfZM/82LGLBXpaM1PJdW15Vgderw2qDVsUKVVhv4F6AVKLR2bB8LB7aSAPX/K/gUl1sCV1OP3czm03cON3t27QbVX99+Xyqmzs6u5vzvMLI/9Mb3H5YFpmldCWtfVU+VR/EJ+ROi8UKYltZBaJ2EzlFonYXqMKRsJcKaGtpCnSxQhUDNVlOvCnUynYtrPw00T4PW04cdzKGpWzsWDgJgaaOnWDppRbWawk9wivADyVOalh5gSigly9MxbTi6Y04N5uuqW7P0hbdD75kylJMii1HlkZhPy3W+KSbLdUGRFvhdwDuZ+N08VSBv+wrxni48W6/nvV7TM7wb3g3vN+LdkVepbDXAXwt3zXSZYzlmgximNwOfge+NwXf26Dq0ZPa6t2NPDbVlSGQTnEcUE9aFrSHQEPjLE8gi5o9C0FFnt2YtyqxFmbWoE9eiAHBOW4sCVnABWtWV43oOaQasJly+zXC5C0HfPVtUN2+uFi41J4tMuDTh0oTL08Kl7aisHgiX7gVodcxSrgnOJji/JjifffjpBwZn1+BucDe43xR3Zaf2drwDzUnHYorTuGMOOv6mo/Aj4++zDzpqTyFzl9FlnsQ/ivrp5//rei590LEr06k55wiCrgbP8BInp3x1svzpSFg8y48fsNTWuwojdzQaKW9XZP7pPHsbDHDI4OF6zXwd5E2cYAKTyRRiuIrLBhwwk9Y/k4TfNB3fvfNk1+7bN/PtbmBs5y3bjjwJcMLbnd8C6qbyR66Ucjhg3UOKnuGRbeUrGJI7sINe79czpFSodjIXir1I1PpQm1y9yxKouyxX8zyhYhwomaNaXepoiHUz2/4jNFkm/uWJO69ODl6aNwdbKbrzsg9SJhRXjerloEphNkfSqF3VZoYwQ3wjl/8q3XQvpBv7SsoJVOVUh9FuoBxHM9xpnGTpYZgt66WCJN3UywTvxhTSIo8WKH4awRSjZDLe5hQt3zfWFRr5b+66hgHwgv6v57oQzzGpfk9hXj6sWtnZE2K/NeQGtzvLWH8+wcl4HuxuEypH43HqEyotQG9BmTrpfxxGf30ePmr7Xlqi3GnF2tpGuUyThJfBF1DSr3A/G5VXDwb6FZR64KqOn8THOogCO82PRtAGQevOcuV/UxOpk5Uqyn7g7W5kIbNZLhZHmlrfNeG0w3vqWYQiR1n+Hf7pkB+S3Zbnen3fPeSH2gP3oAu6/s/on/TDKIwL1q1qQF6pUefJ1GH4ud6ptTrv1CXcYmCl7p1/KUOi9UAIVsxGs9upLM94PT8KpbcMDr7E9otpW1ddlG5x65su8+x3EFjyvNr31Hn17lSEvCl6iTGcblPU7FSYnYq3tVNxPnVd2fX54dUGZiy5/6yjKrTuP0/KGf4P&lt;/diagram&gt;&lt;/mxfile&gt;">
    <defs/>
    <rect fill="#ffffff" width="100%" height="100%" x="0" y="0" style="fill: light-dark(rgb(255, 255, 255), rgb(18, 18, 18));"/>
    <g>
        <g>
            <path d="M 120 0 L 1085 0 L 1085 789 L 120 789 Z" fill="none" stroke="#232f3e" stroke-miterlimit="10" pointer-events="none" style="stroke: light-dark(rgb(35, 47, 62), rgb(189, 199, 212));"/>
            <path d="M 126.09 7.18 C 126.01 7.18 125.93 7.19 125.85 7.19 C 125.5 7.19 125.15 7.23 124.81 7.32 C 124.53 7.39 124.25 7.49 123.98 7.62 C 123.9 7.65 123.84 7.7 123.79 7.76 C 123.75 7.83 123.74 7.91 123.74 7.99 L 123.74 8.32 C 123.74 8.46 123.78 8.53 123.89 8.53 L 123.99 8.53 L 124.22 8.44 C 124.45 8.35 124.69 8.27 124.94 8.21 C 125.17 8.16 125.41 8.13 125.65 8.13 C 126.04 8.09 126.43 8.2 126.73 8.44 C 126.97 8.74 127.09 9.12 127.05 9.5 L 127.05 9.99 C 126.78 9.93 126.54 9.88 126.29 9.84 C 126.05 9.81 125.81 9.79 125.57 9.79 C 124.98 9.76 124.4 9.94 123.94 10.31 C 123.54 10.65 123.32 11.15 123.34 11.68 C 123.31 12.15 123.49 12.62 123.82 12.96 C 124.18 13.29 124.66 13.46 125.15 13.44 C 125.91 13.45 126.63 13.11 127.11 12.51 C 127.18 12.66 127.24 12.79 127.31 12.91 C 127.38 13.02 127.46 13.12 127.55 13.21 C 127.6 13.27 127.67 13.31 127.75 13.31 C 127.81 13.31 127.87 13.29 127.92 13.25 L 128.34 12.97 C 128.41 12.93 128.46 12.86 128.47 12.77 C 128.47 12.72 128.45 12.67 128.42 12.62 C 128.34 12.47 128.26 12.31 128.21 12.14 C 128.15 11.95 128.12 11.75 128.13 11.55 L 128.14 9.37 C 128.2 8.77 128 8.18 127.59 7.74 C 127.17 7.39 126.64 7.19 126.09 7.18 Z M 139.89 7.19 C 139.78 7.19 139.68 7.19 139.57 7.2 C 139.29 7.2 139 7.24 138.73 7.31 C 138.47 7.38 138.23 7.5 138.01 7.66 C 137.82 7.81 137.66 7.99 137.54 8.21 C 137.42 8.43 137.35 8.67 137.36 8.92 C 137.36 9.27 137.48 9.61 137.69 9.89 C 137.97 10.22 138.34 10.46 138.76 10.56 L 139.72 10.87 C 139.97 10.93 140.2 11.05 140.39 11.22 C 140.51 11.35 140.58 11.51 140.57 11.69 C 140.58 11.94 140.45 12.18 140.23 12.31 C 139.93 12.48 139.6 12.56 139.26 12.54 C 138.99 12.54 138.72 12.51 138.46 12.45 C 138.22 12.4 137.98 12.32 137.75 12.22 L 137.59 12.15 C 137.54 12.14 137.5 12.14 137.46 12.15 C 137.36 12.15 137.31 12.22 137.31 12.36 L 137.31 12.69 C 137.31 12.76 137.32 12.82 137.35 12.89 C 137.4 12.97 137.47 13.03 137.56 13.07 C 137.8 13.19 138.06 13.28 138.32 13.34 C 138.66 13.41 139 13.45 139.35 13.45 L 139.33 13.46 C 139.66 13.45 139.98 13.4 140.29 13.3 C 140.55 13.22 140.8 13.09 141.01 12.92 C 141.21 12.77 141.38 12.57 141.49 12.34 C 141.61 12.1 141.67 11.83 141.66 11.56 C 141.67 11.23 141.56 10.9 141.36 10.63 C 141.09 10.32 140.73 10.09 140.33 9.99 L 139.39 9.69 C 139.13 9.61 138.88 9.49 138.67 9.32 C 138.54 9.2 138.47 9.03 138.47 8.85 C 138.46 8.61 138.58 8.38 138.79 8.25 C 139.06 8.11 139.36 8.05 139.67 8.06 C 140.11 8.06 140.55 8.14 140.96 8.32 C 141.04 8.37 141.12 8.4 141.21 8.41 C 141.31 8.41 141.36 8.34 141.36 8.19 L 141.36 7.88 C 141.37 7.8 141.35 7.72 141.31 7.66 C 141.25 7.59 141.18 7.54 141.11 7.49 L 140.83 7.38 L 140.45 7.27 L 140.01 7.2 C 139.97 7.2 139.93 7.19 139.89 7.19 Z M 136.02 7.36 C 135.94 7.35 135.86 7.38 135.79 7.42 C 135.72 7.5 135.68 7.59 135.66 7.69 L 134.51 12.14 L 133.47 7.71 C 133.45 7.61 133.41 7.52 133.34 7.44 C 133.26 7.39 133.17 7.37 133.07 7.38 L 132.54 7.38 C 132.44 7.37 132.35 7.39 132.27 7.44 C 132.2 7.51 132.15 7.61 132.14 7.71 L 131.09 12.14 L 129.97 7.7 C 129.95 7.6 129.91 7.51 129.84 7.44 C 129.76 7.39 129.67 7.36 129.58 7.37 L 128.92 7.37 C 128.81 7.37 128.76 7.43 128.76 7.54 C 128.77 7.63 128.79 7.72 128.82 7.81 L 130.38 12.95 C 130.4 13.05 130.45 13.14 130.52 13.21 C 130.6 13.26 130.69 13.29 130.78 13.28 L 131.36 13.26 C 131.46 13.27 131.55 13.25 131.63 13.19 C 131.7 13.12 131.74 13.03 131.76 12.93 L 132.79 8.64 L 133.82 12.93 C 133.83 13.03 133.88 13.12 133.95 13.19 C 134.03 13.25 134.12 13.27 134.21 13.26 L 134.78 13.26 C 134.88 13.27 134.97 13.25 135.04 13.2 C 135.11 13.13 135.16 13.03 135.18 12.94 L 136.79 7.79 C 136.84 7.72 136.84 7.63 136.84 7.63 C 136.84 7.59 136.84 7.56 136.84 7.52 C 136.84 7.48 136.82 7.43 136.79 7.4 C 136.76 7.37 136.72 7.35 136.67 7.36 L 136.05 7.36 C 136.04 7.36 136.03 7.36 136.02 7.36 Z M 125.65 10.62 C 125.7 10.62 125.75 10.62 125.8 10.62 L 126.43 10.62 C 126.64 10.64 126.85 10.67 127.06 10.71 L 127.06 11.01 C 127.07 11.21 127.05 11.4 127 11.59 C 126.96 11.75 126.88 11.9 126.77 12.01 C 126.61 12.21 126.39 12.36 126.14 12.44 C 125.91 12.52 125.67 12.56 125.43 12.56 C 125.18 12.6 124.93 12.53 124.73 12.37 C 124.55 12.18 124.46 11.92 124.49 11.66 C 124.47 11.36 124.59 11.08 124.81 10.89 C 125.06 10.72 125.35 10.62 125.65 10.62 Z M 141.04 14.72 C 140.34 14.73 139.51 14.89 138.88 15.33 C 138.69 15.46 138.72 15.63 138.94 15.63 C 139.64 15.54 141.21 15.35 141.5 15.71 C 141.78 16.06 141.19 17.54 140.94 18.21 C 140.86 18.41 141.03 18.49 141.21 18.34 C 142.39 17.36 142.72 15.3 142.46 15 C 142.32 14.85 141.74 14.71 141.04 14.72 Z M 122.65 15.1 C 122.5 15.12 122.42 15.3 122.58 15.44 C 125.29 17.89 128.82 19.23 132.48 19.21 C 135.37 19.22 138.2 18.36 140.59 16.74 C 140.95 16.47 140.63 16.07 140.26 16.23 C 137.87 17.24 135.3 17.76 132.71 17.77 C 129.23 17.78 125.82 16.87 122.81 15.14 C 122.75 15.11 122.69 15.1 122.65 15.1 Z M 120 0 L 145 0 L 145 25 L 120 25 Z" fill="#232f3e" stroke="none" pointer-events="all" style="fill: light-dark(rgb(35, 47, 62), rgb(189, 199, 212));"/>
        </g>
        <g>
            <g transform="translate(-0.5 -0.5)">
                <switch>
                    <foreignObject style="overflow: visible; text-align: left;" pointer-events="none" width="100%" height="100%" requiredFeatures="http://www.w3.org/TR/SVG11/feature#Extensibility">
                        <div xmlns="http://www.w3.org/1999/xhtml" style="display: flex; align-items: unsafe flex-start; justify-content: unsafe flex-start; width: 933px; height: 1px; padding-top: 7px; margin-left: 152px;">
                            <div style="box-sizing: border-box; font-size: 0; text-align: left; color: #232F3E; ">
                                <div style="display: inline-block; font-size: 12px; font-family: &quot;Helvetica&quot;; color: light-dark(#232F3E, #bdc7d4); line-height: 1.2; pointer-events: all; white-space: normal; word-wrap: normal; ">
                                    AWS Cloud
                                </div>
                            </div>
                        </div>
                    </foreignObject>
                    <text x="152" y="19" fill="#232F3E" font-family="&quot;Helvetica&quot;" font-size="12px">
                        AWS Cloud
                    </text>
                </switch>
            </g>
        </g>
        <g>
            <path d="M 277 114 L 1040 114 L 1040 773 L 277 773 Z" fill="none" stroke="#248814" stroke-miterlimit="10" pointer-events="none" style="stroke: light-dark(rgb(36, 136, 20), rgb(85, 171, 71));"/>
            <path d="M 287.59 120.65 C 287.53 120.65 287.48 120.65 287.42 120.65 L 287.42 120.65 C 286.11 120.68 285.03 121.24 284.14 122.25 C 284.13 122.25 284.13 122.25 284.13 122.25 C 283.2 123.36 282.87 124.52 282.96 125.73 C 281.81 126.06 281.12 126.92 280.76 127.74 C 280.75 127.75 280.75 127.76 280.74 127.78 C 280.33 129.05 280.68 130.36 281.24 131.16 C 281.25 131.17 281.25 131.17 281.26 131.18 C 281.94 132.05 282.97 132.53 284.02 132.53 L 295.17 132.53 C 296.19 132.53 297.07 132.16 297.8 131.37 C 298.25 130.94 298.49 130.29 298.58 129.59 C 298.67 128.9 298.61 128.16 298.32 127.55 C 298.31 127.54 298.31 127.53 298.31 127.52 C 297.8 126.62 296.95 125.81 295.76 125.64 C 295.74 124.79 295.28 123.99 294.68 123.56 C 294.67 123.55 294.66 123.55 294.65 123.54 C 294.01 123.18 293.4 123.14 292.91 123.3 C 292.6 123.4 292.36 123.56 292.14 123.74 C 291.51 122.36 290.43 121.18 288.81 120.79 C 288.81 120.79 288.81 120.79 288.81 120.79 C 288.38 120.7 287.97 120.65 287.59 120.65 Z M 287.43 121.38 C 287.8 121.38 288.2 121.43 288.64 121.53 C 290.16 121.89 291.15 123.07 291.66 124.48 C 291.71 124.6 291.81 124.69 291.94 124.72 C 292.07 124.74 292.2 124.7 292.29 124.61 C 292.54 124.34 292.83 124.11 293.14 124.01 C 293.44 123.91 293.78 123.92 294.26 124.18 C 294.67 124.49 295.11 125.31 295.03 125.9 C 295.01 126.01 295.05 126.12 295.12 126.2 C 295.19 126.28 295.29 126.33 295.39 126.33 C 296.46 126.34 297.16 127.02 297.64 127.88 C 297.85 128.3 297.91 128.92 297.84 129.5 C 297.76 130.07 297.53 130.59 297.28 130.83 C 297.27 130.84 297.27 130.85 297.26 130.85 C 296.65 131.53 296.03 131.78 295.17 131.78 L 284.02 131.78 C 283.2 131.78 282.39 131.41 281.85 130.73 C 281.44 130.13 281.14 129.02 281.46 128.02 C 281.79 127.27 282.36 126.55 283.41 126.36 C 283.6 126.32 283.74 126.14 283.71 125.94 C 283.56 124.79 283.8 123.81 284.7 122.74 C 285.49 121.85 286.33 121.39 287.43 121.38 Z M 289.2 124.7 C 288.77 124.7 288.4 124.93 288.13 125.21 C 287.85 125.5 287.64 125.85 287.64 126.25 L 287.64 126.71 L 287.14 126.71 C 287.04 126.71 286.94 126.75 286.87 126.82 C 286.8 126.89 286.76 126.98 286.76 127.08 L 286.76 129.7 C 286.76 129.8 286.8 129.89 286.87 129.96 C 286.94 130.03 287.04 130.07 287.14 130.07 L 291.16 130.07 C 291.26 130.07 291.35 130.03 291.42 129.96 C 291.49 129.89 291.53 129.8 291.53 129.7 L 291.53 127.08 C 291.53 126.98 291.49 126.89 291.42 126.82 C 291.35 126.75 291.26 126.71 291.16 126.71 L 290.68 126.71 L 290.68 126.25 C 290.68 125.84 290.47 125.47 290.21 125.2 C 289.94 124.92 289.61 124.7 289.2 124.7 Z M 289.2 125.45 C 289.29 125.45 289.5 125.54 289.67 125.72 C 289.83 125.89 289.93 126.11 289.93 126.25 L 289.93 126.71 L 288.39 126.71 L 288.39 126.25 C 288.39 126.15 288.49 125.91 288.66 125.74 C 288.83 125.56 289.06 125.45 289.2 125.45 Z M 287.51 127.46 L 290.78 127.46 L 290.78 129.32 L 287.51 129.32 Z M 277 139 L 277 114 L 302 114 L 302 139 Z" fill="#248814" stroke="none" pointer-events="all" style="fill: light-dark(rgb(36, 136, 20), rgb(85, 171, 71));"/>
        </g>
        <g>
            <g transform="translate(-0.5 -0.5)">
                <switch>
                    <foreignObject style="overflow: visible; text-align: left;" pointer-events="none" width="100%" height="100%" requiredFeatures="http://www.w3.org/TR/SVG11/feature#Extensibility">
                        <div xmlns="http://www.w3.org/1999/xhtml" style="display: flex; align-items: unsafe flex-start; justify-content: unsafe flex-start; width: 731px; height: 1px; padding-top: 121px; margin-left: 309px;">
                            <div style="box-sizing: border-box; font-size: 0; text-align: left; color: #AAB7B8; ">
                                <div style="display: inline-block; font-size: 12px; font-family: &quot;Helvetica&quot;; color: light-dark(#AAB7B8, #4a5556); line-height: 1.2; pointer-events: all; white-space: normal; word-wrap: normal; ">
                                    VPC
                                </div>
                            </div>
                        </div>
                    </foreignObject>
                    <text x="309" y="133" fill="#AAB7B8" font-family="&quot;Helvetica&quot;" font-size="12px">
                        VPC
                    </text>
                </switch>
            </g>
        </g>
        <g>
            <path d="M 594 169 L 1014 169 L 1014 754 L 594 754 Z" fill="#e6f2f8" stroke="none" pointer-events="none" style="fill: light-dark(rgb(230, 242, 248), rgb(23, 33, 38));"/>
            <path d="M 594 169 L 619 169 L 619 194 L 594 194 Z M 606.52 172.21 C 605.4 172.21 604.31 172.63 603.49 173.39 C 602.67 174.11 602.2 175.15 602.2 176.24 L 602.2 178.78 L 599.89 178.78 C 599.8 178.78 599.7 178.82 599.64 178.89 C 599.57 178.95 599.54 179.04 599.54 179.13 L 599.54 190.43 C 599.54 190.63 599.7 190.79 599.89 190.79 L 613.11 190.79 C 613.3 190.79 613.46 190.63 613.46 190.43 L 613.46 179.15 C 613.47 179.06 613.43 178.97 613.36 178.9 C 613.3 178.83 613.21 178.79 613.11 178.79 L 610.81 178.79 L 610.81 176.29 C 610.8 175.21 610.35 174.18 609.56 173.44 C 608.74 172.65 607.65 172.22 606.52 172.21 Z M 606.51 172.93 C 607.46 172.92 608.37 173.28 609.06 173.93 C 609.72 174.54 610.1 175.4 610.1 176.29 L 610.1 178.79 L 602.88 178.79 L 602.89 176.26 C 602.9 175.36 603.28 174.51 603.95 173.91 C 604.65 173.27 605.57 172.92 606.51 172.93 Z M 600.24 179.5 L 612.76 179.5 L 612.75 190.07 L 600.24 190.07 Z M 606.51 181.74 C 605.48 181.73 604.61 182.51 604.51 183.53 C 604.42 184.56 605.13 185.48 606.14 185.66 L 606.14 188.44 L 606.86 188.44 L 606.86 185.66 C 607.79 185.49 608.47 184.67 608.48 183.72 C 608.48 182.63 607.6 181.75 606.51 181.74 Z M 606.39 182.45 C 606.43 182.45 606.47 182.45 606.51 182.46 C 606.84 182.46 607.16 182.59 607.4 182.83 C 607.64 183.07 607.77 183.39 607.76 183.72 C 607.77 184.06 607.64 184.38 607.4 184.61 C 607.16 184.85 606.84 184.98 606.51 184.98 C 606.04 185.02 605.6 184.8 605.34 184.42 C 605.08 184.03 605.06 183.53 605.28 183.12 C 605.5 182.71 605.93 182.46 606.39 182.45 Z" fill="#147eba" stroke="none" pointer-events="all" style="fill: light-dark(rgb(20, 126, 186), rgb(69, 160, 212));"/>
        </g>
        <g>
            <g transform="translate(-0.5 -0.5)">
                <switch>
                    <foreignObject style="overflow: visible; text-align: left;" pointer-events="none" width="100%" height="100%" requiredFeatures="http://www.w3.org/TR/SVG11/feature#Extensibility">
                        <div xmlns="http://www.w3.org/1999/xhtml" style="display: flex; align-items: unsafe flex-start; justify-content: unsafe flex-start; width: 388px; height: 1px; padding-top: 176px; margin-left: 626px;">
                            <div style="box-sizing: border-box; font-size: 0; text-align: left; color: #147EBA; ">
                                <div style="display: inline-block; font-size: 12px; font-family: &quot;Helvetica&quot;; color: light-dark(#147EBA, #45a0d4); line-height: 1.2; pointer-events: all; white-space: normal; word-wrap: normal; ">
                                    Private subnet
                                </div>
                            </div>
                        </div>
                    </foreignObject>
                    <text x="626" y="188" fill="#147EBA" font-family="&quot;Helvetica&quot;" font-size="12px">
                        Private subnet
                    </text>
                </switch>
            </g>
        </g>
        <g>
            <path d="M 638 526 L 946 526 L 946 742 L 638 742 Z" fill="none" stroke="#d86613" stroke-miterlimit="10" stroke-dasharray="3 3" pointer-events="none" style="stroke: light-dark(rgb(216, 102, 19), rgb(216, 118, 46));"/>
            <path d="M 792.04 529.51 L 790.09 531.46 L 790.62 531.99 L 791.66 530.95 L 791.66 536.63 L 792.41 536.63 L 792.41 530.97 L 793.39 531.98 L 793.93 531.46 Z M 793.93 545.54 L 793.39 545.02 L 792.41 546.03 L 792.41 540.38 L 791.66 540.38 L 791.66 546.05 L 790.62 545.02 L 790.09 545.55 L 792.04 547.5 Z M 790.33 538.53 L 788.39 536.58 L 787.86 537.12 L 788.89 538.15 L 783.22 538.15 L 783.22 538.9 L 788.87 538.9 L 787.86 539.88 L 788.38 540.42 Z M 793.68 538.47 L 795.63 540.42 L 796.16 539.89 L 795.12 538.85 L 800.8 538.85 L 800.8 538.1 L 795.15 538.1 L 796.16 537.13 L 795.64 536.58 Z M 779.5 551 L 779.5 526 L 804.5 526 L 804.5 551 Z" fill="#d86613" stroke="none" pointer-events="none" style="fill: light-dark(rgb(216, 102, 19), rgb(216, 118, 46));"/>
        </g>
        <g>
            <g transform="translate(-0.5 -0.5)">
                <switch>
                    <foreignObject style="overflow: visible; text-align: left;" pointer-events="none" width="100%" height="100%" requiredFeatures="http://www.w3.org/TR/SVG11/feature#Extensibility">
                        <div xmlns="http://www.w3.org/1999/xhtml" style="display: flex; align-items: unsafe flex-start; justify-content: unsafe center; width: 306px; height: 1px; padding-top: 558px; margin-left: 639px;">
                            <div style="box-sizing: border-box; font-size: 0; text-align: center; color: #D86613; ">
                                <div style="display: inline-block; font-size: 12px; font-family: &quot;Helvetica&quot;; color: light-dark(#D86613, #d8762e); line-height: 1.2; pointer-events: all; white-space: normal; word-wrap: normal; ">
                                    Auto Scaling group
                                </div>
                            </div>
                        </div>
                    </foreignObject>
                    <text x="792" y="570" fill="#D86613" font-family="&quot;Helvetica&quot;" font-size="12px" text-anchor="middle">
                        Auto Scaling group
                    </text>
                </switch>
            </g>
        </g>
        <g>
            <path d="M 856 552 L 906 552 L 906 602 L 856 602 Z" fill="#ed7100" stroke="none" pointer-events="all" style="fill: light-dark(rgb(237, 113, 0), rgb(216, 109, 12));"/>
            <path d="M 873.36 584.64 L 873.36 569.36 L 888.64 569.36 L 888.64 584.64 Z M 872.64 586.09 L 889.36 586.09 C 889.77 586.09 890.09 585.77 890.09 585.36 L 890.09 568.64 C 890.09 568.23 889.77 567.91 889.36 567.91 L 872.64 567.91 C 872.23 567.91 871.91 568.23 871.91 568.64 L 871.91 585.36 C 871.91 585.77 872.23 586.09 872.64 586.09 Z M 867.55 590.45 L 867.55 563.55 L 894.45 563.55 L 894.45 590.45 Z M 901 565 L 901 563.55 L 895.91 563.55 L 895.91 562.82 C 895.91 562.42 895.58 562.09 895.18 562.09 L 894.45 562.09 L 894.45 557 L 893 557 L 893 562.09 L 889.36 562.09 L 889.36 557 L 887.91 557 L 887.91 562.09 L 884.27 562.09 L 884.27 557 L 882.82 557 L 882.82 562.09 L 879.18 562.09 L 879.18 557 L 877.73 557 L 877.73 562.09 L 874.09 562.09 L 874.09 557 L 872.64 557 L 872.64 562.09 L 869 562.09 L 869 557 L 867.55 557 L 867.55 562.09 L 866.82 562.09 C 866.42 562.09 866.09 562.42 866.09 562.82 L 866.09 563.55 L 861 563.55 L 861 565 L 866.09 565 L 866.09 568.64 L 861 568.64 L 861 570.09 L 866.09 570.09 L 866.09 573.73 L 861 573.73 L 861 575.18 L 866.09 575.18 L 866.09 578.82 L 861 578.82 L 861 580.27 L 866.09 580.27 L 866.09 583.91 L 861 583.91 L 861 585.36 L 866.09 585.36 L 866.09 589 L 861 589 L 861 590.45 L 866.09 590.45 L 866.09 591.18 C 866.09 591.58 866.42 591.91 866.82 591.91 L 867.55 591.91 L 867.55 597 L 869 597 L 869 591.91 L 872.64 591.91 L 872.64 597 L 874.09 597 L 874.09 591.91 L 877.73 591.91 L 877.73 597 L 879.18 597 L 879.18 591.91 L 882.82 591.91 L 882.82 597 L 884.27 597 L 884.27 591.91 L 887.91 591.91 L 887.91 597 L 889.36 597 L 889.36 591.91 L 893 591.91 L 893 597 L 894.45 597 L 894.45 591.91 L 895.18 591.91 C 895.58 591.91 895.91 591.58 895.91 591.18 L 895.91 590.45 L 901 590.45 L 901 589 L 895.91 589 L 895.91 585.36 L 901 585.36 L 901 583.91 L 895.91 583.91 L 895.91 580.27 L 901 580.27 L 901 578.82 L 895.91 578.82 L 895.91 575.18 L 901 575.18 L 901 573.73 L 895.91 573.73 L 895.91 570.09 L 901 570.09 L 901 568.64 L 895.91 568.64 L 895.91 565 Z" fill="#ffffff" stroke="none" pointer-events="all" style="fill: light-dark(rgb(255, 255, 255), rgb(18, 18, 18));"/>
        </g>
        <g>
            <g transform="translate(-0.5 -0.5)">
                <switch>
                    <foreignObject style="overflow: visible; text-align: left;" pointer-events="none" width="100%" height="100%" requiredFeatures="http://www.w3.org/TR/SVG11/feature#Extensibility">
                        <div xmlns="http://www.w3.org/1999/xhtml" style="display: flex; align-items: unsafe flex-start; justify-content: unsafe center; width: 1px; height: 1px; padding-top: 609px; margin-left: 881px;">
                            <div style="box-sizing: border-box; font-size: 0; text-align: center; color: #232F3E; ">
                                <div style="display: inline-block; font-size: 12px; font-family: &quot;Helvetica&quot;; color: light-dark(#232F3E, #bdc7d4); line-height: 1.2; pointer-events: all; white-space: nowrap; ">
                                    <span style="color: light-dark(rgb(35, 47, 62), rgb(189, 199, 212));">
                                        EC2-ASG-multi
                                    </span>
                                </div>
                            </div>
                        </div>
                    </foreignObject>
                    <text x="881" y="621" fill="#232F3E" font-family="&quot;Helvetica&quot;" font-size="12px" text-anchor="middle">
                        EC2-ASG-...
                    </text>
                </switch>
            </g>
        </g>
        <g>
            <path d="M 674 553 L 724 553 L 724 603 L 674 603 Z" fill="#ed7100" stroke="none" pointer-events="all" style="fill: light-dark(rgb(237, 113, 0), rgb(216, 109, 12));"/>
            <path d="M 691.36 585.64 L 691.36 570.36 L 706.64 570.36 L 706.64 585.64 Z M 690.64 587.09 L 707.36 587.09 C 707.77 587.09 708.09 586.77 708.09 586.36 L 708.09 569.64 C 708.09 569.23 707.77 568.91 707.36 568.91 L 690.64 568.91 C 690.23 568.91 689.91 569.23 689.91 569.64 L 689.91 586.36 C 689.91 586.77 690.23 587.09 690.64 587.09 Z M 685.55 591.45 L 685.55 564.55 L 712.45 564.55 L 712.45 591.45 Z M 719 566 L 719 564.55 L 713.91 564.55 L 713.91 563.82 C 713.91 563.42 713.58 563.09 713.18 563.09 L 712.45 563.09 L 712.45 558 L 711 558 L 711 563.09 L 707.36 563.09 L 707.36 558 L 705.91 558 L 705.91 563.09 L 702.27 563.09 L 702.27 558 L 700.82 558 L 700.82 563.09 L 697.18 563.09 L 697.18 558 L 695.73 558 L 695.73 563.09 L 692.09 563.09 L 692.09 558 L 690.64 558 L 690.64 563.09 L 687 563.09 L 687 558 L 685.55 558 L 685.55 563.09 L 684.82 563.09 C 684.42 563.09 684.09 563.42 684.09 563.82 L 684.09 564.55 L 679 564.55 L 679 566 L 684.09 566 L 684.09 569.64 L 679 569.64 L 679 571.09 L 684.09 571.09 L 684.09 574.73 L 679 574.73 L 679 576.18 L 684.09 576.18 L 684.09 579.82 L 679 579.82 L 679 581.27 L 684.09 581.27 L 684.09 584.91 L 679 584.91 L 679 586.36 L 684.09 586.36 L 684.09 590 L 679 590 L 679 591.45 L 684.09 591.45 L 684.09 592.18 C 684.09 592.58 684.42 592.91 684.82 592.91 L 685.55 592.91 L 685.55 598 L 687 598 L 687 592.91 L 690.64 592.91 L 690.64 598 L 692.09 598 L 692.09 592.91 L 695.73 592.91 L 695.73 598 L 697.18 598 L 697.18 592.91 L 700.82 592.91 L 700.82 598 L 702.27 598 L 702.27 592.91 L 705.91 592.91 L 705.91 598 L 707.36 598 L 707.36 592.91 L 711 592.91 L 711 598 L 712.45 598 L 712.45 592.91 L 713.18 592.91 C 713.58 592.91 713.91 592.58 713.91 592.18 L 713.91 591.45 L 719 591.45 L 719 590 L 713.91 590 L 713.91 586.36 L 719 586.36 L 719 584.91 L 713.91 584.91 L 713.91 581.27 L 719 581.27 L 719 579.82 L 713.91 579.82 L 713.91 576.18 L 719 576.18 L 719 574.73 L 713.91 574.73 L 713.91 571.09 L 719 571.09 L 719 569.64 L 713.91 569.64 L 713.91 566 Z" fill="#ffffff" stroke="none" pointer-events="all" style="fill: light-dark(rgb(255, 255, 255), rgb(18, 18, 18));"/>
        </g>
        <g>
            <g transform="translate(-0.5 -0.5)">
                <switch>
                    <foreignObject style="overflow: visible; text-align: left;" pointer-events="none" width="100%" height="100%" requiredFeatures="http://www.w3.org/TR/SVG11/feature#Extensibility">
                        <div xmlns="http://www.w3.org/1999/xhtml" style="display: flex; align-items: unsafe flex-start; justify-content: unsafe center; width: 1px; height: 1px; padding-top: 610px; margin-left: 699px;">
                            <div style="box-sizing: border-box; font-size: 0; text-align: center; color: #232F3E; ">
                                <div style="display: inline-block; font-size: 12px; font-family: &quot;Helvetica&quot;; color: light-dark(#232F3E, #bdc7d4); line-height: 1.2; pointer-events: all; white-space: nowrap; ">
                                    <span style="color: light-dark(rgb(35, 47, 62), rgb(189, 199, 212));">
                                        EC2-ASG-multi
                                    </span>
                                </div>
                            </div>
                        </div>
                    </foreignObject>
                    <text x="699" y="622" fill="#232F3E" font-family="&quot;Helvetica&quot;" font-size="12px" text-anchor="middle">
                        EC2-ASG-...
                    </text>
                </switch>
            </g>
        </g>
        <g>
            <path d="M 674 198 L 724 198 L 724 248 L 674 248 Z" fill="#ed7100" stroke="none" pointer-events="all" style="fill: light-dark(rgb(237, 113, 0), rgb(216, 109, 12));"/>
            <path d="M 691.36 230.64 L 691.36 215.36 L 706.64 215.36 L 706.64 230.64 Z M 690.64 232.09 L 707.36 232.09 C 707.77 232.09 708.09 231.77 708.09 231.36 L 708.09 214.64 C 708.09 214.23 707.77 213.91 707.36 213.91 L 690.64 213.91 C 690.23 213.91 689.91 214.23 689.91 214.64 L 689.91 231.36 C 689.91 231.77 690.23 232.09 690.64 232.09 Z M 685.55 236.45 L 685.55 209.55 L 712.45 209.55 L 712.45 236.45 Z M 719 211 L 719 209.55 L 713.91 209.55 L 713.91 208.82 C 713.91 208.42 713.58 208.09 713.18 208.09 L 712.45 208.09 L 712.45 203 L 711 203 L 711 208.09 L 707.36 208.09 L 707.36 203 L 705.91 203 L 705.91 208.09 L 702.27 208.09 L 702.27 203 L 700.82 203 L 700.82 208.09 L 697.18 208.09 L 697.18 203 L 695.73 203 L 695.73 208.09 L 692.09 208.09 L 692.09 203 L 690.64 203 L 690.64 208.09 L 687 208.09 L 687 203 L 685.55 203 L 685.55 208.09 L 684.82 208.09 C 684.42 208.09 684.09 208.42 684.09 208.82 L 684.09 209.55 L 679 209.55 L 679 211 L 684.09 211 L 684.09 214.64 L 679 214.64 L 679 216.09 L 684.09 216.09 L 684.09 219.73 L 679 219.73 L 679 221.18 L 684.09 221.18 L 684.09 224.82 L 679 224.82 L 679 226.27 L 684.09 226.27 L 684.09 229.91 L 679 229.91 L 679 231.36 L 684.09 231.36 L 684.09 235 L 679 235 L 679 236.45 L 684.09 236.45 L 684.09 237.18 C 684.09 237.58 684.42 237.91 684.82 237.91 L 685.55 237.91 L 685.55 243 L 687 243 L 687 237.91 L 690.64 237.91 L 690.64 243 L 692.09 243 L 692.09 237.91 L 695.73 237.91 L 695.73 243 L 697.18 243 L 697.18 237.91 L 700.82 237.91 L 700.82 243 L 702.27 243 L 702.27 237.91 L 705.91 237.91 L 705.91 243 L 707.36 243 L 707.36 237.91 L 711 237.91 L 711 243 L 712.45 243 L 712.45 237.91 L 713.18 237.91 C 713.58 237.91 713.91 237.58 713.91 237.18 L 713.91 236.45 L 719 236.45 L 719 235 L 713.91 235 L 713.91 231.36 L 719 231.36 L 719 229.91 L 713.91 229.91 L 713.91 226.27 L 719 226.27 L 719 224.82 L 713.91 224.82 L 713.91 221.18 L 719 221.18 L 719 219.73 L 713.91 219.73 L 713.91 216.09 L 719 216.09 L 719 214.64 L 713.91 214.64 L 713.91 211 Z" fill="#ffffff" stroke="none" pointer-events="all" style="fill: light-dark(rgb(255, 255, 255), rgb(18, 18, 18));"/>
        </g>
        <g>
            <g transform="translate(-0.5 -0.5)">
                <switch>
                    <foreignObject style="overflow: visible; text-align: left;" pointer-events="none" width="100%" height="100%" requiredFeatures="http://www.w3.org/TR/SVG11/feature#Extensibility">
                        <div xmlns="http://www.w3.org/1999/xhtml" style="display: flex; align-items: unsafe flex-start; justify-content: unsafe center; width: 1px; height: 1px; padding-top: 255px; margin-left: 699px;">
                            <div style="box-sizing: border-box; font-size: 0; text-align: center; color: #232F3E; ">
                                <div style="display: inline-block; font-size: 12px; font-family: &quot;Helvetica&quot;; color: light-dark(#232F3E, #bdc7d4); line-height: 1.2; pointer-events: all; white-space: nowrap; ">
                                    EC2-Single
                                </div>
                            </div>
                        </div>
                    </foreignObject>
                    <text x="699" y="267" fill="#232F3E" font-family="&quot;Helvetica&quot;" font-size="12px" text-anchor="middle">
                        EC2-Sing...
                    </text>
                </switch>
            </g>
        </g>
        <g>
            <path d="M 818 198 L 868 198 L 868 248 L 818 248 Z" fill="#ed7100" stroke="none" pointer-events="all" style="fill: light-dark(rgb(237, 113, 0), rgb(216, 109, 12));"/>
            <path d="M 835.36 230.64 L 835.36 215.36 L 850.64 215.36 L 850.64 230.64 Z M 834.64 232.09 L 851.36 232.09 C 851.77 232.09 852.09 231.77 852.09 231.36 L 852.09 214.64 C 852.09 214.23 851.77 213.91 851.36 213.91 L 834.64 213.91 C 834.23 213.91 833.91 214.23 833.91 214.64 L 833.91 231.36 C 833.91 231.77 834.23 232.09 834.64 232.09 Z M 829.55 236.45 L 829.55 209.55 L 856.45 209.55 L 856.45 236.45 Z M 863 211 L 863 209.55 L 857.91 209.55 L 857.91 208.82 C 857.91 208.42 857.58 208.09 857.18 208.09 L 856.45 208.09 L 856.45 203 L 855 203 L 855 208.09 L 851.36 208.09 L 851.36 203 L 849.91 203 L 849.91 208.09 L 846.27 208.09 L 846.27 203 L 844.82 203 L 844.82 208.09 L 841.18 208.09 L 841.18 203 L 839.73 203 L 839.73 208.09 L 836.09 208.09 L 836.09 203 L 834.64 203 L 834.64 208.09 L 831 208.09 L 831 203 L 829.55 203 L 829.55 208.09 L 828.82 208.09 C 828.42 208.09 828.09 208.42 828.09 208.82 L 828.09 209.55 L 823 209.55 L 823 211 L 828.09 211 L 828.09 214.64 L 823 214.64 L 823 216.09 L 828.09 216.09 L 828.09 219.73 L 823 219.73 L 823 221.18 L 828.09 221.18 L 828.09 224.82 L 823 224.82 L 823 226.27 L 828.09 226.27 L 828.09 229.91 L 823 229.91 L 823 231.36 L 828.09 231.36 L 828.09 235 L 823 235 L 823 236.45 L 828.09 236.45 L 828.09 237.18 C 828.09 237.58 828.42 237.91 828.82 237.91 L 829.55 237.91 L 829.55 243 L 831 243 L 831 237.91 L 834.64 237.91 L 834.64 243 L 836.09 243 L 836.09 237.91 L 839.73 237.91 L 839.73 243 L 841.18 243 L 841.18 237.91 L 844.82 237.91 L 844.82 243 L 846.27 243 L 846.27 237.91 L 849.91 237.91 L 849.91 243 L 851.36 243 L 851.36 237.91 L 855 237.91 L 855 243 L 856.45 243 L 856.45 237.91 L 857.18 237.91 C 857.58 237.91 857.91 237.58 857.91 237.18 L 857.91 236.45 L 863 236.45 L 863 235 L 857.91 235 L 857.91 231.36 L 863 231.36 L 863 229.91 L 857.91 229.91 L 857.91 226.27 L 863 226.27 L 863 224.82 L 857.91 224.82 L 857.91 221.18 L 863 221.18 L 863 219.73 L 857.91 219.73 L 857.91 216.09 L 863 216.09 L 863 214.64 L 857.91 214.64 L 857.91 211 Z" fill="#ffffff" stroke="none" pointer-events="all" style="fill: light-dark(rgb(255, 255, 255), rgb(18, 18, 18));"/>
        </g>
        <g>
            <g transform="translate(-0.5 -0.5)">
                <switch>
                    <foreignObject style="overflow: visible; text-align: left;" pointer-events="none" width="100%" height="100%" requiredFeatures="http://www.w3.org/TR/SVG11/feature#Extensibility">
                        <div xmlns="http://www.w3.org/1999/xhtml" style="display: flex; align-items: unsafe flex-start; justify-content: unsafe center; width: 1px; height: 1px; padding-top: 255px; margin-left: 843px;">
                            <div style="box-sizing: border-box; font-size: 0; text-align: center; color: #232F3E; ">
                                <div style="display: inline-block; font-size: 12px; font-family: &quot;Helvetica&quot;; color: light-dark(#232F3E, #bdc7d4); line-height: 1.2; pointer-events: all; white-space: nowrap; ">
                                    EC2-AutoRecovery
                                </div>
                            </div>
                        </div>
                    </foreignObject>
                    <text x="843" y="267" fill="#232F3E" font-family="&quot;Helvetica&quot;" font-size="12px" text-anchor="middle">
                        EC2-Auto...
                    </text>
                </switch>
            </g>
        </g>
        <g>
            <path d="M 638 282 L 946 282 L 946 389 L 638 389 Z" fill="none" stroke="#d86613" stroke-miterlimit="10" stroke-dasharray="3 3" pointer-events="none" style="stroke: light-dark(rgb(216, 102, 19), rgb(216, 118, 46));"/>
            <path d="M 792.04 285.51 L 790.09 287.46 L 790.62 287.99 L 791.66 286.95 L 791.66 292.63 L 792.41 292.63 L 792.41 286.97 L 793.39 287.98 L 793.93 287.46 Z M 793.93 301.54 L 793.39 301.02 L 792.41 302.03 L 792.41 296.38 L 791.66 296.38 L 791.66 302.05 L 790.62 301.02 L 790.09 301.55 L 792.04 303.5 Z M 790.33 294.53 L 788.39 292.58 L 787.86 293.12 L 788.89 294.15 L 783.22 294.15 L 783.22 294.9 L 788.87 294.9 L 787.86 295.88 L 788.38 296.42 Z M 793.68 294.47 L 795.63 296.42 L 796.16 295.89 L 795.12 294.85 L 800.8 294.85 L 800.8 294.1 L 795.15 294.1 L 796.16 293.13 L 795.64 292.58 Z M 779.5 307 L 779.5 282 L 804.5 282 L 804.5 307 Z" fill="#d86613" stroke="none" pointer-events="none" style="fill: light-dark(rgb(216, 102, 19), rgb(216, 118, 46));"/>
        </g>
        <g>
            <g transform="translate(-0.5 -0.5)">
                <switch>
                    <foreignObject style="overflow: visible; text-align: left;" pointer-events="none" width="100%" height="100%" requiredFeatures="http://www.w3.org/TR/SVG11/feature#Extensibility">
                        <div xmlns="http://www.w3.org/1999/xhtml" style="display: flex; align-items: unsafe flex-start; justify-content: unsafe center; width: 306px; height: 1px; padding-top: 314px; margin-left: 639px;">
                            <div style="box-sizing: border-box; font-size: 0; text-align: center; color: #D86613; ">
                                <div style="display: inline-block; font-size: 12px; font-family: &quot;Helvetica&quot;; color: light-dark(#D86613, #d8762e); line-height: 1.2; pointer-events: all; white-space: normal; word-wrap: normal; ">
                                    Auto Scaling group
                                </div>
                            </div>
                        </div>
                    </foreignObject>
                    <text x="792" y="326" fill="#D86613" font-family="&quot;Helvetica&quot;" font-size="12px" text-anchor="middle">
                        Auto Scaling group
                    </text>
                </switch>
            </g>
        </g>
        <g>
            <path d="M 674 307 L 724 307 L 724 357 L 674 357 Z" fill="#ed7100" stroke="none" pointer-events="all" style="fill: light-dark(rgb(237, 113, 0), rgb(216, 109, 12));"/>
            <path d="M 691.36 339.64 L 691.36 324.36 L 706.64 324.36 L 706.64 339.64 Z M 690.64 341.09 L 707.36 341.09 C 707.77 341.09 708.09 340.77 708.09 340.36 L 708.09 323.64 C 708.09 323.23 707.77 322.91 707.36 322.91 L 690.64 322.91 C 690.23 322.91 689.91 323.23 689.91 323.64 L 689.91 340.36 C 689.91 340.77 690.23 341.09 690.64 341.09 Z M 685.55 345.45 L 685.55 318.55 L 712.45 318.55 L 712.45 345.45 Z M 719 320 L 719 318.55 L 713.91 318.55 L 713.91 317.82 C 713.91 317.42 713.58 317.09 713.18 317.09 L 712.45 317.09 L 712.45 312 L 711 312 L 711 317.09 L 707.36 317.09 L 707.36 312 L 705.91 312 L 705.91 317.09 L 702.27 317.09 L 702.27 312 L 700.82 312 L 700.82 317.09 L 697.18 317.09 L 697.18 312 L 695.73 312 L 695.73 317.09 L 692.09 317.09 L 692.09 312 L 690.64 312 L 690.64 317.09 L 687 317.09 L 687 312 L 685.55 312 L 685.55 317.09 L 684.82 317.09 C 684.42 317.09 684.09 317.42 684.09 317.82 L 684.09 318.55 L 679 318.55 L 679 320 L 684.09 320 L 684.09 323.64 L 679 323.64 L 679 325.09 L 684.09 325.09 L 684.09 328.73 L 679 328.73 L 679 330.18 L 684.09 330.18 L 684.09 333.82 L 679 333.82 L 679 335.27 L 684.09 335.27 L 684.09 338.91 L 679 338.91 L 679 340.36 L 684.09 340.36 L 684.09 344 L 679 344 L 679 345.45 L 684.09 345.45 L 684.09 346.18 C 684.09 346.58 684.42 346.91 684.82 346.91 L 685.55 346.91 L 685.55 352 L 687 352 L 687 346.91 L 690.64 346.91 L 690.64 352 L 692.09 352 L 692.09 346.91 L 695.73 346.91 L 695.73 352 L 697.18 352 L 697.18 346.91 L 700.82 346.91 L 700.82 352 L 702.27 352 L 702.27 346.91 L 705.91 346.91 L 705.91 352 L 707.36 352 L 707.36 346.91 L 711 346.91 L 711 352 L 712.45 352 L 712.45 346.91 L 713.18 346.91 C 713.58 346.91 713.91 346.58 713.91 346.18 L 713.91 345.45 L 719 345.45 L 719 344 L 713.91 344 L 713.91 340.36 L 719 340.36 L 719 338.91 L 713.91 338.91 L 713.91 335.27 L 719 335.27 L 719 333.82 L 713.91 333.82 L 713.91 330.18 L 719 330.18 L 719 328.73 L 713.91 328.73 L 713.91 325.09 L 719 325.09 L 719 323.64 L 713.91 323.64 L 713.91 320 Z" fill="#ffffff" stroke="none" pointer-events="all" style="fill: light-dark(rgb(255, 255, 255), rgb(18, 18, 18));"/>
        </g>
        <g>
            <g transform="translate(-0.5 -0.5)">
                <switch>
                    <foreignObject style="overflow: visible; text-align: left;" pointer-events="none" width="100%" height="100%" requiredFeatures="http://www.w3.org/TR/SVG11/feature#Extensibility">
                        <div xmlns="http://www.w3.org/1999/xhtml" style="display: flex; align-items: unsafe flex-start; justify-content: unsafe center; width: 1px; height: 1px; padding-top: 364px; margin-left: 699px;">
                            <div style="box-sizing: border-box; font-size: 0; text-align: center; color: #232F3E; ">
                                <div style="display: inline-block; font-size: 12px; font-family: &quot;Helvetica&quot;; color: light-dark(#232F3E, #bdc7d4); line-height: 1.2; pointer-events: all; white-space: nowrap; ">
                                    EC2-ASG-Single
                                </div>
                            </div>
                        </div>
                    </foreignObject>
                    <text x="699" y="376" fill="#232F3E" font-family="&quot;Helvetica&quot;" font-size="12px" text-anchor="middle">
                        EC2-ASG-...
                    </text>
                </switch>
            </g>
        </g>
        <g>
            <path d="M 638 404 L 946 404 L 946 508 L 638 508 Z" fill="none" stroke="#d86613" stroke-miterlimit="10" stroke-dasharray="3 3" pointer-events="none" style="stroke: light-dark(rgb(216, 102, 19), rgb(216, 118, 46));"/>
            <path d="M 792.04 407.51 L 790.09 409.46 L 790.62 409.99 L 791.66 408.95 L 791.66 414.63 L 792.41 414.63 L 792.41 408.97 L 793.39 409.98 L 793.93 409.46 Z M 793.93 423.54 L 793.39 423.02 L 792.41 424.03 L 792.41 418.38 L 791.66 418.38 L 791.66 424.05 L 790.62 423.02 L 790.09 423.55 L 792.04 425.5 Z M 790.33 416.53 L 788.39 414.58 L 787.86 415.12 L 788.89 416.15 L 783.22 416.15 L 783.22 416.9 L 788.87 416.9 L 787.86 417.88 L 788.38 418.42 Z M 793.68 416.47 L 795.63 418.42 L 796.16 417.89 L 795.12 416.85 L 800.8 416.85 L 800.8 416.1 L 795.15 416.1 L 796.16 415.13 L 795.64 414.58 Z M 779.5 429 L 779.5 404 L 804.5 404 L 804.5 429 Z" fill="#d86613" stroke="none" pointer-events="none" style="fill: light-dark(rgb(216, 102, 19), rgb(216, 118, 46));"/>
        </g>
        <g>
            <g transform="translate(-0.5 -0.5)">
                <switch>
                    <foreignObject style="overflow: visible; text-align: left;" pointer-events="none" width="100%" height="100%" requiredFeatures="http://www.w3.org/TR/SVG11/feature#Extensibility">
                        <div xmlns="http://www.w3.org/1999/xhtml" style="display: flex; align-items: unsafe flex-start; justify-content: unsafe center; width: 306px; height: 1px; padding-top: 436px; margin-left: 639px;">
                            <div style="box-sizing: border-box; font-size: 0; text-align: center; color: #D86613; ">
                                <div style="display: inline-block; font-size: 12px; font-family: &quot;Helvetica&quot;; color: light-dark(#D86613, #d8762e); line-height: 1.2; pointer-events: all; white-space: normal; word-wrap: normal; ">
                                    Auto Scaling group
                                </div>
                            </div>
                        </div>
                    </foreignObject>
                    <text x="792" y="448" fill="#D86613" font-family="&quot;Helvetica&quot;" font-size="12px" text-anchor="middle">
                        Auto Scaling group
                    </text>
                </switch>
            </g>
        </g>
        <g>
            <path d="M 674 429 L 724 429 L 724 479 L 674 479 Z" fill="#ed7100" stroke="none" pointer-events="all" style="fill: light-dark(rgb(237, 113, 0), rgb(216, 109, 12));"/>
            <path d="M 691.36 461.64 L 691.36 446.36 L 706.64 446.36 L 706.64 461.64 Z M 690.64 463.09 L 707.36 463.09 C 707.77 463.09 708.09 462.77 708.09 462.36 L 708.09 445.64 C 708.09 445.23 707.77 444.91 707.36 444.91 L 690.64 444.91 C 690.23 444.91 689.91 445.23 689.91 445.64 L 689.91 462.36 C 689.91 462.77 690.23 463.09 690.64 463.09 Z M 685.55 467.45 L 685.55 440.55 L 712.45 440.55 L 712.45 467.45 Z M 719 442 L 719 440.55 L 713.91 440.55 L 713.91 439.82 C 713.91 439.42 713.58 439.09 713.18 439.09 L 712.45 439.09 L 712.45 434 L 711 434 L 711 439.09 L 707.36 439.09 L 707.36 434 L 705.91 434 L 705.91 439.09 L 702.27 439.09 L 702.27 434 L 700.82 434 L 700.82 439.09 L 697.18 439.09 L 697.18 434 L 695.73 434 L 695.73 439.09 L 692.09 439.09 L 692.09 434 L 690.64 434 L 690.64 439.09 L 687 439.09 L 687 434 L 685.55 434 L 685.55 439.09 L 684.82 439.09 C 684.42 439.09 684.09 439.42 684.09 439.82 L 684.09 440.55 L 679 440.55 L 679 442 L 684.09 442 L 684.09 445.64 L 679 445.64 L 679 447.09 L 684.09 447.09 L 684.09 450.73 L 679 450.73 L 679 452.18 L 684.09 452.18 L 684.09 455.82 L 679 455.82 L 679 457.27 L 684.09 457.27 L 684.09 460.91 L 679 460.91 L 679 462.36 L 684.09 462.36 L 684.09 466 L 679 466 L 679 467.45 L 684.09 467.45 L 684.09 468.18 C 684.09 468.58 684.42 468.91 684.82 468.91 L 685.55 468.91 L 685.55 474 L 687 474 L 687 468.91 L 690.64 468.91 L 690.64 474 L 692.09 474 L 692.09 468.91 L 695.73 468.91 L 695.73 474 L 697.18 474 L 697.18 468.91 L 700.82 468.91 L 700.82 474 L 702.27 474 L 702.27 468.91 L 705.91 468.91 L 705.91 474 L 707.36 474 L 707.36 468.91 L 711 468.91 L 711 474 L 712.45 474 L 712.45 468.91 L 713.18 468.91 C 713.58 468.91 713.91 468.58 713.91 468.18 L 713.91 467.45 L 719 467.45 L 719 466 L 713.91 466 L 713.91 462.36 L 719 462.36 L 719 460.91 L 713.91 460.91 L 713.91 457.27 L 719 457.27 L 719 455.82 L 713.91 455.82 L 713.91 452.18 L 719 452.18 L 719 450.73 L 713.91 450.73 L 713.91 447.09 L 719 447.09 L 719 445.64 L 713.91 445.64 L 713.91 442 Z" fill="#ffffff" stroke="none" pointer-events="all" style="fill: light-dark(rgb(255, 255, 255), rgb(18, 18, 18));"/>
        </g>
        <g>
            <g transform="translate(-0.5 -0.5)">
                <switch>
                    <foreignObject style="overflow: visible; text-align: left;" pointer-events="none" width="100%" height="100%" requiredFeatures="http://www.w3.org/TR/SVG11/feature#Extensibility">
                        <div xmlns="http://www.w3.org/1999/xhtml" style="display: flex; align-items: unsafe flex-start; justify-content: unsafe center; width: 1px; height: 1px; padding-top: 486px; margin-left: 699px;">
                            <div style="box-sizing: border-box; font-size: 0; text-align: center; color: #232F3E; ">
                                <div style="display: inline-block; font-size: 12px; font-family: &quot;Helvetica&quot;; color: light-dark(#232F3E, #bdc7d4); line-height: 1.2; pointer-events: all; white-space: nowrap; ">
                                    <span style="color: light-dark(rgb(35, 47, 62), rgb(189, 199, 212));">
                                        EC2-ASG-multi
                                    </span>
                                </div>
                            </div>
                        </div>
                    </foreignObject>
                    <text x="699" y="498" fill="#232F3E" font-family="&quot;Helvetica&quot;" font-size="12px" text-anchor="middle">
                        EC2-ASG-...
                    </text>
                </switch>
            </g>
        </g>
        <g>
            <path d="M 856 429 L 906 429 L 906 479 L 856 479 Z" fill="#ed7100" stroke="none" pointer-events="all" style="fill: light-dark(rgb(237, 113, 0), rgb(216, 109, 12));"/>
            <path d="M 873.36 461.64 L 873.36 446.36 L 888.64 446.36 L 888.64 461.64 Z M 872.64 463.09 L 889.36 463.09 C 889.77 463.09 890.09 462.77 890.09 462.36 L 890.09 445.64 C 890.09 445.23 889.77 444.91 889.36 444.91 L 872.64 444.91 C 872.23 444.91 871.91 445.23 871.91 445.64 L 871.91 462.36 C 871.91 462.77 872.23 463.09 872.64 463.09 Z M 867.55 467.45 L 867.55 440.55 L 894.45 440.55 L 894.45 467.45 Z M 901 442 L 901 440.55 L 895.91 440.55 L 895.91 439.82 C 895.91 439.42 895.58 439.09 895.18 439.09 L 894.45 439.09 L 894.45 434 L 893 434 L 893 439.09 L 889.36 439.09 L 889.36 434 L 887.91 434 L 887.91 439.09 L 884.27 439.09 L 884.27 434 L 882.82 434 L 882.82 439.09 L 879.18 439.09 L 879.18 434 L 877.73 434 L 877.73 439.09 L 874.09 439.09 L 874.09 434 L 872.64 434 L 872.64 439.09 L 869 439.09 L 869 434 L 867.55 434 L 867.55 439.09 L 866.82 439.09 C 866.42 439.09 866.09 439.42 866.09 439.82 L 866.09 440.55 L 861 440.55 L 861 442 L 866.09 442 L 866.09 445.64 L 861 445.64 L 861 447.09 L 866.09 447.09 L 866.09 450.73 L 861 450.73 L 861 452.18 L 866.09 452.18 L 866.09 455.82 L 861 455.82 L 861 457.27 L 866.09 457.27 L 866.09 460.91 L 861 460.91 L 861 462.36 L 866.09 462.36 L 866.09 466 L 861 466 L 861 467.45 L 866.09 467.45 L 866.09 468.18 C 866.09 468.58 866.42 468.91 866.82 468.91 L 867.55 468.91 L 867.55 474 L 869 474 L 869 468.91 L 872.64 468.91 L 872.64 474 L 874.09 474 L 874.09 468.91 L 877.73 468.91 L 877.73 474 L 879.18 474 L 879.18 468.91 L 882.82 468.91 L 882.82 474 L 884.27 474 L 884.27 468.91 L 887.91 468.91 L 887.91 474 L 889.36 474 L 889.36 468.91 L 893 468.91 L 893 474 L 894.45 474 L 894.45 468.91 L 895.18 468.91 C 895.58 468.91 895.91 468.58 895.91 468.18 L 895.91 467.45 L 901 467.45 L 901 466 L 895.91 466 L 895.91 462.36 L 901 462.36 L 901 460.91 L 895.91 460.91 L 895.91 457.27 L 901 457.27 L 901 455.82 L 895.91 455.82 L 895.91 452.18 L 901 452.18 L 901 450.73 L 895.91 450.73 L 895.91 447.09 L 901 447.09 L 901 445.64 L 895.91 445.64 L 895.91 442 Z" fill="#ffffff" stroke="none" pointer-events="all" style="fill: light-dark(rgb(255, 255, 255), rgb(18, 18, 18));"/>
        </g>
        <g>
            <g transform="translate(-0.5 -0.5)">
                <switch>
                    <foreignObject style="overflow: visible; text-align: left;" pointer-events="none" width="100%" height="100%" requiredFeatures="http://www.w3.org/TR/SVG11/feature#Extensibility">
                        <div xmlns="http://www.w3.org/1999/xhtml" style="display: flex; align-items: unsafe flex-start; justify-content: unsafe center; width: 1px; height: 1px; padding-top: 486px; margin-left: 881px;">
                            <div style="box-sizing: border-box; font-size: 0; text-align: center; color: #232F3E; ">
                                <div style="display: inline-block; font-size: 12px; font-family: &quot;Helvetica&quot;; color: light-dark(#232F3E, #bdc7d4); line-height: 1.2; pointer-events: all; white-space: nowrap; ">
                                    <span style="color: light-dark(rgb(35, 47, 62), rgb(189, 199, 212));">
                                        EC2-ASG-multi
                                    </span>
                                </div>
                            </div>
                        </div>
                    </foreignObject>
                    <text x="881" y="498" fill="#232F3E" font-family="&quot;Helvetica&quot;" font-size="12px" text-anchor="middle">
                        EC2-ASG-...
                    </text>
                </switch>
            </g>
        </g>
        <g>
            <path d="M 375 169 L 554 169 L 554 755 L 375 755 Z" fill="#e9f3e6" stroke="none" pointer-events="none" style="fill: light-dark(rgb(233, 243, 230), rgb(24, 33, 22));"/>
            <path d="M 375 169 L 400 169 L 400 194 L 375 194 Z M 387.52 172.21 C 386.4 172.21 385.31 172.63 384.49 173.39 C 383.67 174.11 383.2 175.15 383.2 176.24 L 383.2 178.78 L 380.89 178.78 C 380.8 178.78 380.7 178.82 380.64 178.89 C 380.57 178.95 380.54 179.04 380.54 179.13 L 380.54 190.43 C 380.54 190.63 380.7 190.79 380.89 190.79 L 394.11 190.79 C 394.3 190.79 394.46 190.63 394.46 190.43 L 394.46 179.15 C 394.47 179.06 394.43 178.97 394.36 178.9 C 394.3 178.83 394.21 178.79 394.11 178.79 L 391.81 178.79 L 391.81 176.29 C 391.8 175.21 391.35 174.18 390.56 173.44 C 389.74 172.65 388.65 172.22 387.52 172.21 Z M 387.51 172.93 C 388.46 172.92 389.37 173.28 390.06 173.93 C 390.72 174.54 391.1 175.4 391.1 176.29 L 391.1 178.79 L 383.88 178.79 L 383.89 176.26 C 383.9 175.36 384.28 174.51 384.95 173.91 C 385.65 173.27 386.57 172.92 387.51 172.93 Z M 381.24 179.5 L 393.76 179.5 L 393.75 190.07 L 381.24 190.07 Z M 387.51 181.74 C 386.48 181.73 385.61 182.51 385.51 183.53 C 385.42 184.56 386.13 185.48 387.14 185.66 L 387.14 188.44 L 387.86 188.44 L 387.86 185.66 C 388.79 185.49 389.47 184.67 389.48 183.72 C 389.48 182.63 388.6 181.75 387.51 181.74 Z M 387.39 182.45 C 387.43 182.45 387.47 182.45 387.51 182.46 C 387.84 182.46 388.16 182.59 388.4 182.83 C 388.64 183.07 388.77 183.39 388.76 183.72 C 388.77 184.06 388.64 184.38 388.4 184.61 C 388.16 184.85 387.84 184.98 387.51 184.98 C 387.04 185.02 386.6 184.8 386.34 184.42 C 386.08 184.03 386.06 183.53 386.28 183.12 C 386.5 182.71 386.93 182.46 387.39 182.45 Z" fill="#248814" stroke="none" pointer-events="all" style="fill: light-dark(rgb(36, 136, 20), rgb(85, 171, 71));"/>
        </g>
        <g>
            <g transform="translate(-0.5 -0.5)">
                <switch>
                    <foreignObject style="overflow: visible; text-align: left;" pointer-events="none" width="100%" height="100%" requiredFeatures="http://www.w3.org/TR/SVG11/feature#Extensibility">
                        <div xmlns="http://www.w3.org/1999/xhtml" style="display: flex; align-items: unsafe flex-start; justify-content: unsafe flex-start; width: 147px; height: 1px; padding-top: 176px; margin-left: 407px;">
                            <div style="box-sizing: border-box; font-size: 0; text-align: left; color: #248814; ">
                                <div style="display: inline-block; font-size: 12px; font-family: &quot;Helvetica&quot;; color: light-dark(#248814, #55ab47); line-height: 1.2; pointer-events: all; white-space: normal; word-wrap: normal; ">
                                    Public subnet
                                </div>
                            </div>
                        </div>
                    </foreignObject>
                    <text x="407" y="188" fill="#248814" font-family="&quot;Helvetica&quot;" font-size="12px">
                        Public subnet
                    </text>
                </switch>
            </g>
        </g>
        <g>
            <rect x="439.5" y="431" width="50" height="50" fill="none" stroke="none" pointer-events="all"/>
            <path d="M 464.5 431 C 450.71 431 439.5 442.22 439.5 456 C 439.5 469.78 450.71 481 464.5 481 C 478.28 481 489.5 469.78 489.5 456 C 489.5 442.22 478.28 431 464.5 431 Z M 464.5 478.73 C 451.97 478.73 441.77 468.53 441.77 456 C 441.77 443.47 451.97 433.27 464.5 433.27 C 477.03 433.27 487.23 443.47 487.23 456 C 487.23 468.53 477.03 478.73 464.5 478.73 Z M 479.31 462.82 L 477.57 462.82 L 477.57 458.98 C 477.57 458.35 477.06 457.85 476.43 457.85 L 473.59 457.85 L 473.59 454.01 C 473.59 453.38 473.08 452.88 472.45 452.88 L 465.64 452.88 L 465.64 450.18 L 472.45 450.18 C 473.08 450.18 473.59 449.67 473.59 449.04 L 473.59 440.09 C 473.59 439.46 473.08 438.95 472.45 438.95 L 456.55 438.95 C 455.92 438.95 455.41 439.46 455.41 440.09 L 455.41 449.04 C 455.41 449.67 455.92 450.18 456.55 450.18 L 463.36 450.18 L 463.36 452.88 L 456.55 452.88 C 455.92 452.88 455.41 453.38 455.41 454.01 L 455.41 457.85 L 452.57 457.85 C 451.94 457.85 451.43 458.35 451.43 458.98 L 451.43 462.82 L 449.69 462.82 C 449.06 462.82 448.55 463.33 448.55 463.95 L 448.55 468.93 C 448.55 469.55 449.06 470.06 449.69 470.06 L 454.56 470.06 C 455.18 470.06 455.69 469.55 455.69 468.93 L 455.69 463.95 C 455.69 463.33 455.18 462.82 454.56 462.82 L 453.71 462.82 L 453.71 460.12 L 458.39 460.12 L 458.39 462.82 L 457.54 462.82 C 456.91 462.82 456.4 463.33 456.4 463.95 L 456.4 468.93 C 456.4 469.55 456.91 470.06 457.54 470.06 L 462.51 470.06 C 463.14 470.06 463.65 469.55 463.65 468.93 L 463.65 463.95 C 463.65 463.33 463.14 462.82 462.51 462.82 L 460.67 462.82 L 460.67 458.98 C 460.67 458.35 460.16 457.85 459.53 457.85 L 457.68 457.85 L 457.68 455.15 L 471.32 455.15 L 471.32 457.85 L 469.47 457.85 C 468.84 457.85 468.34 458.35 468.34 458.98 L 468.34 462.82 L 466.49 462.82 C 465.86 462.82 465.35 463.33 465.35 463.95 L 465.35 468.93 C 465.35 469.55 465.86 470.06 466.49 470.06 L 471.46 470.06 C 472.09 470.06 472.6 469.55 472.6 468.93 L 472.6 463.95 C 472.6 463.33 472.09 462.82 471.46 462.82 L 470.61 462.82 L 470.61 460.12 L 475.3 460.12 L 475.3 462.82 L 474.37 462.82 C 473.75 462.82 473.24 463.33 473.24 463.95 L 473.24 468.93 C 473.24 469.55 473.75 470.06 474.37 470.06 L 479.31 470.06 C 479.94 470.06 480.45 469.55 480.45 468.93 L 480.45 463.95 C 480.45 463.33 479.94 462.82 479.31 462.82 Z M 457.68 447.9 L 457.68 441.23 L 471.32 441.23 L 471.32 447.9 Z M 450.82 467.79 L 450.82 465.09 L 453.42 465.09 L 453.42 467.79 Z M 458.68 467.79 L 458.68 465.09 L 461.38 465.09 L 461.38 467.79 Z M 467.63 467.79 L 467.63 465.09 L 470.32 465.09 L 470.32 467.79 Z M 475.51 467.79 L 475.51 465.09 L 478.18 465.09 L 478.18 467.79 Z" fill="#8c4fff" stroke="none" pointer-events="all" style="fill: light-dark(rgb(140, 79, 255), rgb(177, 125, 255));"/>
        </g>
        <g>
            <g transform="translate(-0.5 -0.5)">
                <switch>
                    <foreignObject style="overflow: visible; text-align: left;" pointer-events="none" width="100%" height="100%" requiredFeatures="http://www.w3.org/TR/SVG11/feature#Extensibility">
                        <div xmlns="http://www.w3.org/1999/xhtml" style="display: flex; align-items: unsafe flex-start; justify-content: unsafe center; width: 1px; height: 1px; padding-top: 488px; margin-left: 465px;">
                            <div style="box-sizing: border-box; font-size: 0; text-align: center; color: #232F3E; ">
                                <div style="display: inline-block; font-size: 12px; font-family: &quot;Helvetica&quot;; color: light-dark(#232F3E, #bdc7d4); line-height: 1.2; pointer-events: all; white-space: nowrap; ">
                                    ALB
                                </div>
                            </div>
                        </div>
                    </foreignObject>
                    <text x="465" y="500" fill="#232F3E" font-family="&quot;Helvetica&quot;" font-size="12px" text-anchor="middle">
                        ALB
                    </text>
                </switch>
            </g>
        </g>
        <g>
            <rect x="441" y="555" width="50" height="50" fill="none" stroke="none" pointer-events="all"/>
            <path d="M 466 555 C 452.21 555 441 566.22 441 580 C 441 593.78 452.21 605 466 605 C 479.78 605 491 593.78 491 580 C 491 566.22 479.78 555 466 555 Z M 466 602.73 C 453.47 602.73 443.27 592.53 443.27 580 C 443.27 567.47 453.47 557.27 466 557.27 C 478.53 557.27 488.73 567.47 488.73 580 C 488.73 592.53 478.53 602.73 466 602.73 Z M 480.81 586.82 L 479.07 586.82 L 479.07 582.98 C 479.07 582.35 478.56 581.85 477.93 581.85 L 475.09 581.85 L 475.09 578.01 C 475.09 577.38 474.58 576.88 473.95 576.88 L 467.14 576.88 L 467.14 574.18 L 473.95 574.18 C 474.58 574.18 475.09 573.67 475.09 573.04 L 475.09 564.09 C 475.09 563.46 474.58 562.95 473.95 562.95 L 458.05 562.95 C 457.42 562.95 456.91 563.46 456.91 564.09 L 456.91 573.04 C 456.91 573.67 457.42 574.18 458.05 574.18 L 464.86 574.18 L 464.86 576.88 L 458.05 576.88 C 457.42 576.88 456.91 577.38 456.91 578.01 L 456.91 581.85 L 454.07 581.85 C 453.44 581.85 452.93 582.35 452.93 582.98 L 452.93 586.82 L 451.19 586.82 C 450.56 586.82 450.05 587.33 450.05 587.95 L 450.05 592.93 C 450.05 593.55 450.56 594.06 451.19 594.06 L 456.06 594.06 C 456.68 594.06 457.19 593.55 457.19 592.93 L 457.19 587.95 C 457.19 587.33 456.68 586.82 456.06 586.82 L 455.21 586.82 L 455.21 584.12 L 459.89 584.12 L 459.89 586.82 L 459.04 586.82 C 458.41 586.82 457.9 587.33 457.9 587.95 L 457.9 592.93 C 457.9 593.55 458.41 594.06 459.04 594.06 L 464.01 594.06 C 464.64 594.06 465.15 593.55 465.15 592.93 L 465.15 587.95 C 465.15 587.33 464.64 586.82 464.01 586.82 L 462.17 586.82 L 462.17 582.98 C 462.17 582.35 461.66 581.85 461.03 581.85 L 459.18 581.85 L 459.18 579.15 L 472.82 579.15 L 472.82 581.85 L 470.97 581.85 C 470.34 581.85 469.84 582.35 469.84 582.98 L 469.84 586.82 L 467.99 586.82 C 467.36 586.82 466.85 587.33 466.85 587.95 L 466.85 592.93 C 466.85 593.55 467.36 594.06 467.99 594.06 L 472.96 594.06 C 473.59 594.06 474.1 593.55 474.1 592.93 L 474.1 587.95 C 474.1 587.33 473.59 586.82 472.96 586.82 L 472.11 586.82 L 472.11 584.12 L 476.8 584.12 L 476.8 586.82 L 475.87 586.82 C 475.25 586.82 474.74 587.33 474.74 587.95 L 474.74 592.93 C 474.74 593.55 475.25 594.06 475.87 594.06 L 480.81 594.06 C 481.44 594.06 481.95 593.55 481.95 592.93 L 481.95 587.95 C 481.95 587.33 481.44 586.82 480.81 586.82 Z M 459.18 571.9 L 459.18 565.23 L 472.82 565.23 L 472.82 571.9 Z M 452.32 591.79 L 452.32 589.09 L 454.92 589.09 L 454.92 591.79 Z M 460.18 591.79 L 460.18 589.09 L 462.88 589.09 L 462.88 591.79 Z M 469.13 591.79 L 469.13 589.09 L 471.82 589.09 L 471.82 591.79 Z M 477.01 591.79 L 477.01 589.09 L 479.68 589.09 L 479.68 591.79 Z" fill="#8c4fff" stroke="none" pointer-events="all" style="fill: light-dark(rgb(140, 79, 255), rgb(177, 125, 255));"/>
        </g>
        <g>
            <g transform="translate(-0.5 -0.5)">
                <switch>
                    <foreignObject style="overflow: visible; text-align: left;" pointer-events="none" width="100%" height="100%" requiredFeatures="http://www.w3.org/TR/SVG11/feature#Extensibility">
                        <div xmlns="http://www.w3.org/1999/xhtml" style="display: flex; align-items: unsafe flex-start; justify-content: unsafe center; width: 1px; height: 1px; padding-top: 612px; margin-left: 466px;">
                            <div style="box-sizing: border-box; font-size: 0; text-align: center; color: #232F3E; ">
                                <div style="display: inline-block; font-size: 12px; font-family: &quot;Helvetica&quot;; color: light-dark(#232F3E, #bdc7d4); line-height: 1.2; pointer-events: all; white-space: nowrap; ">
                                    ALB
                                </div>
                            </div>
                        </div>
                    </foreignObject>
                    <text x="466" y="624" fill="#232F3E" font-family="&quot;Helvetica&quot;" font-size="12px" text-anchor="middle">
                        ALB
                    </text>
                </switch>
            </g>
        </g>
        <g>
            <rect x="256" y="287" width="50" height="50" fill="none" stroke="none" pointer-events="all"/>
            <path d="M 291.79 324.78 L 290.09 324.78 L 290.09 304.65 C 290.09 304.21 289.82 303.8 289.41 303.62 L 289.31 303.57 C 287.02 302.53 284.66 301.47 281.25 301.47 C 277.7 301.47 275.09 302.61 272.51 303.9 C 272.12 304.09 271.87 304.48 271.87 304.92 L 271.87 324.78 L 270.21 324.78 L 270.21 303.3 C 272.98 301.04 276.98 299.76 281.26 299.76 C 285.25 299.76 289.05 300.89 291.79 302.89 Z M 281.26 297.48 C 276.23 297.48 271.51 299.1 268.32 301.92 C 268.07 302.13 267.93 302.44 267.93 302.77 L 267.93 325.92 C 267.93 326.55 268.44 327.06 269.07 327.06 L 273.01 327.06 C 273.64 327.06 274.15 326.55 274.15 325.92 L 274.15 305.63 C 276.34 304.57 278.46 303.74 281.25 303.74 C 283.91 303.74 285.85 304.51 287.81 305.39 L 287.81 325.92 C 287.81 326.55 288.32 327.06 288.95 327.06 L 292.93 327.06 C 293.56 327.06 294.07 326.55 294.07 325.92 L 294.07 302.33 C 294.07 301.98 293.91 301.65 293.64 301.43 C 290.48 298.92 285.97 297.48 281.26 297.48 Z M 281 334.72 C 268.47 334.72 258.28 324.53 258.28 312 C 258.28 299.47 268.47 289.28 281 289.28 C 293.53 289.28 303.72 299.47 303.72 312 C 303.72 324.53 293.53 334.72 281 334.72 Z M 281 287 C 267.21 287 256 298.22 256 312 C 256 325.79 267.21 337 281 337 C 294.79 337 306 325.79 306 312 C 306 298.22 294.79 287 281 287 Z" fill="#4d27aa" stroke="none" pointer-events="all" style="fill: light-dark(rgb(77, 39, 170), rgb(207, 174, 255));"/>
        </g>
        <g>
            <g transform="translate(-0.5 -0.5)">
                <switch>
                    <foreignObject style="overflow: visible; text-align: left;" pointer-events="none" width="100%" height="100%" requiredFeatures="http://www.w3.org/TR/SVG11/feature#Extensibility">
                        <div xmlns="http://www.w3.org/1999/xhtml" style="display: flex; align-items: unsafe flex-start; justify-content: unsafe center; width: 1px; height: 1px; padding-top: 344px; margin-left: 281px;">
                            <div style="box-sizing: border-box; font-size: 0; text-align: center; color: #232F3E; ">
                                <div style="display: inline-block; font-size: 12px; font-family: &quot;Helvetica&quot;; color: light-dark(#232F3E, #bdc7d4); line-height: 1.2; pointer-events: all; white-space: nowrap; ">
                                    Internet Gateway
                                </div>
                            </div>
                        </div>
                    </foreignObject>
                    <text x="281" y="356" fill="#232F3E" font-family="&quot;Helvetica&quot;" font-size="12px" text-anchor="middle">
                        Internet...
                    </text>
                </switch>
            </g>
        </g>
        <g>
            <path d="M 489.5 456 L 631.63 456" fill="none" stroke="#000000" stroke-miterlimit="10" pointer-events="stroke" style="stroke: light-dark(rgb(0, 0, 0), rgb(255, 255, 255));"/>
            <path d="M 636.88 456 L 629.88 459.5 L 631.63 456 L 629.88 452.5 Z" fill="#000000" stroke="#000000" stroke-miterlimit="10" pointer-events="all" style="fill: light-dark(rgb(0, 0, 0), rgb(255, 255, 255)); stroke: light-dark(rgb(0, 0, 0), rgb(255, 255, 255));"/>
        </g>
        <g>
            <path d="M 491 580 L 631.63 580" fill="none" stroke="#000000" stroke-miterlimit="10" pointer-events="stroke" style="stroke: light-dark(rgb(0, 0, 0), rgb(255, 255, 255));"/>
            <path d="M 636.88 580 L 629.88 583.5 L 631.63 580 L 629.88 576.5 Z" fill="#000000" stroke="#000000" stroke-miterlimit="10" pointer-events="all" style="fill: light-dark(rgb(0, 0, 0), rgb(255, 255, 255)); stroke: light-dark(rgb(0, 0, 0), rgb(255, 255, 255));"/>
        </g>
        <g>
            <rect x="818" y="17" width="50" height="50" fill="none" stroke="none" pointer-events="all"/>
            <path d="M 822.12 63.02 L 832.06 63.02 C 832.69 63.02 833.2 62.51 833.2 61.89 L 833.2 40.01 C 833.2 39.38 832.69 38.88 832.06 38.88 L 822.12 38.88 C 821.49 38.88 820.98 39.38 820.98 40.01 L 820.98 61.89 C 820.98 62.51 821.49 63.02 822.12 63.02 Z M 823.26 60.75 L 823.26 41.15 L 830.93 41.15 L 830.93 60.75 Z M 838.03 63.02 L 847.97 63.02 C 848.6 63.02 849.11 62.51 849.11 61.89 L 849.11 44.98 C 849.11 44.36 848.6 43.85 847.97 43.85 L 838.03 43.85 C 837.4 43.85 836.89 44.36 836.89 44.98 L 836.89 61.89 C 836.89 62.51 837.4 63.02 838.03 63.02 Z M 839.16 60.75 L 839.16 46.12 L 846.84 46.12 L 846.84 60.75 Z M 818.14 67 L 867.86 67 L 867.86 64.73 L 818.14 64.73 Z M 853.56 33.19 L 864.26 33.19 C 865.77 33.19 867.01 31.96 867.01 30.45 L 867.01 19.74 C 867.01 18.23 865.77 17 864.26 17 L 853.56 17 C 852.05 17 850.81 18.23 850.81 19.74 L 850.81 30.45 C 850.81 31.96 852.05 33.19 853.56 33.19 Z M 853.08 19.74 C 853.08 19.48 853.3 19.27 853.56 19.27 L 864.26 19.27 C 864.52 19.27 864.73 19.48 864.73 19.74 L 864.73 30.45 C 864.73 30.71 864.52 30.92 864.26 30.92 L 853.56 30.92 C 853.3 30.92 853.08 30.71 853.08 30.45 Z M 853.94 34.9 C 853.31 34.9 852.8 35.41 852.8 36.03 L 852.8 61.89 C 852.8 62.51 853.31 63.02 853.94 63.02 L 863.88 63.02 C 864.51 63.02 865.02 62.51 865.02 61.89 L 865.02 36.03 C 865.02 35.41 864.51 34.9 863.88 34.9 Z M 855.07 60.75 L 855.07 37.17 L 862.75 37.17 L 862.75 60.75 Z" fill="#e7157b" stroke="none" pointer-events="all" style="fill: light-dark(rgb(231, 21, 123), rgb(255, 129, 217));"/>
        </g>
        <g>
            <g transform="translate(-0.5 -0.5)">
                <switch>
                    <foreignObject style="overflow: visible; text-align: left;" pointer-events="none" width="100%" height="100%" requiredFeatures="http://www.w3.org/TR/SVG11/feature#Extensibility">
                        <div xmlns="http://www.w3.org/1999/xhtml" style="display: flex; align-items: unsafe flex-start; justify-content: unsafe center; width: 1px; height: 1px; padding-top: 74px; margin-left: 843px;">
                            <div style="box-sizing: border-box; font-size: 0; text-align: center; color: #232F3E; ">
                                <div style="display: inline-block; font-size: 12px; font-family: &quot;Helvetica&quot;; color: light-dark(#232F3E, #bdc7d4); line-height: 1.2; pointer-events: all; white-space: nowrap; ">
                                    AutoRecoveryAlarm
                                    <div>
                                        (StatusCheckFailed_System)
                                    </div>
                                </div>
                            </div>
                        </div>
                    </foreignObject>
                    <text x="843" y="86" fill="#232F3E" font-family="&quot;Helvetica&quot;" font-size="12px" text-anchor="middle">
                        AutoReco...
                    </text>
                </switch>
            </g>
        </g>
        <g>
            <path d="M 843 67 L 843 191.63" fill="none" stroke="#000000" stroke-miterlimit="10" pointer-events="stroke" style="stroke: light-dark(rgb(0, 0, 0), rgb(255, 255, 255));"/>
            <path d="M 843 196.88 L 839.5 189.88 L 843 191.63 L 846.5 189.88 Z" fill="#000000" stroke="#000000" stroke-miterlimit="10" pointer-events="all" style="fill: light-dark(rgb(0, 0, 0), rgb(255, 255, 255)); stroke: light-dark(rgb(0, 0, 0), rgb(255, 255, 255));"/>
        </g>
        <g>
            <g transform="translate(-0.5 -0.5)">
                <switch>
                    <foreignObject style="overflow: visible; text-align: left;" pointer-events="none" width="100%" height="100%" requiredFeatures="http://www.w3.org/TR/SVG11/feature#Extensibility">
                        <div xmlns="http://www.w3.org/1999/xhtml" style="display: flex; align-items: unsafe center; justify-content: unsafe center; width: 1px; height: 1px; padding-top: 131px; margin-left: 851px;">
                            <div style="box-sizing: border-box; font-size: 0; text-align: center; color: #000000; background-color: #ffffff; ">
                                <div style="display: inline-block; font-size: 11px; font-family: &quot;Helvetica&quot;; color: light-dark(#000000, #ffffff); line-height: 1.2; pointer-events: all; background-color: light-dark(#ffffff, var(--ge-dark-color, #121212)); white-space: nowrap; ">
                                    RECOVER
                                </div>
                            </div>
                        </div>
                    </foreignObject>
                    <text x="851" y="134" fill="light-dark(#000000, #ffffff)" font-family="&quot;Helvetica&quot;" font-size="11px" text-anchor="middle">
                        RECOVER
                    </text>
                </switch>
            </g>
        </g>
        <g>
            <rect x="0" y="303" width="50" height="50" fill="none" stroke="none" pointer-events="all"/>
            <path d="M 37.18 304.15 C 34.14 304.15 31.7 306.6 31.7 309.63 C 31.7 312.67 34.14 315.12 37.18 315.12 C 40.21 315.12 42.66 312.67 42.66 309.63 C 42.66 306.6 40.21 304.15 37.18 304.15 Z M 36.24 327.43 L 48.78 327.43 C 48.73 323.99 48.25 322.23 46.35 319.39 C 45.02 317.67 42.59 316.13 40.18 315.46 C 39.27 315.94 38.28 316.27 37.18 316.27 C 36.07 316.27 35.08 315.93 34.16 315.45 L 34.16 315.45 C 32.84 315.79 31.65 316.33 30.59 317.03 L 29.95 316.11 C 30.87 315.51 31.88 315.02 32.97 314.65 C 31.52 313.43 30.54 311.67 30.54 309.63 C 30.54 305.98 33.52 303 37.18 303 L 37.18 303 C 40.84 303 43.81 305.98 43.81 309.63 C 43.81 311.67 42.83 313.43 41.38 314.65 C 43.72 315.48 45.92 316.93 47.27 318.7 C 47.28 318.71 47.29 318.72 47.29 318.73 C 49.4 321.87 49.95 324.02 49.95 328 C 49.95 328.32 49.69 328.58 49.38 328.58 L 36.24 328.58 Z M 12.82 304.15 C 15.86 304.15 18.3 306.6 18.3 309.63 C 18.3 312.67 15.86 315.12 12.82 315.12 C 9.79 315.12 7.34 312.67 7.34 309.63 C 7.34 306.6 9.79 304.15 12.82 304.15 Z M 13.76 327.43 L 1.22 327.43 C 1.27 323.99 1.75 322.23 3.65 319.39 C 4.98 317.67 7.41 316.13 9.82 315.46 C 10.73 315.94 11.72 316.27 12.82 316.27 C 13.93 316.27 14.92 315.93 15.84 315.45 L 15.84 315.45 C 17.16 315.79 18.35 316.33 19.41 317.03 L 20.05 316.11 C 19.13 315.51 18.12 315.02 17.03 314.65 C 18.48 313.43 19.46 311.67 19.46 309.63 C 19.46 305.98 16.48 303 12.82 303 L 12.82 303 C 9.16 303 6.19 305.98 6.19 309.63 C 6.19 311.67 7.17 313.43 8.62 314.65 C 6.28 315.48 4.08 316.93 2.73 318.7 C 2.72 318.71 2.71 318.72 2.71 318.73 C 0.6 321.87 0.05 324.02 0.05 328 C 0.05 328.32 0.31 328.58 0.62 328.58 L 13.76 328.58 Z M 24.91 317.08 C 19.82 317.08 15.69 321.21 15.69 326.3 C 15.69 329.24 17.09 331.83 19.24 333.52 C 15.88 334.67 12.67 336.75 10.74 339.28 C 10.73 339.29 10.72 339.3 10.72 339.31 C 7.74 343.74 6.98 346.72 6.98 352.36 C 6.98 352.71 7.26 352.99 7.6 352.99 L 42.34 353 C 42.69 353 42.97 352.72 42.97 352.37 C 42.97 348.47 42.65 344.38 40 340.4 C 40 340.39 40 340.39 39.99 340.38 C 37.75 337.23 34.54 334.8 30.58 333.51 C 32.73 331.82 34.13 329.23 34.13 326.3 C 34.13 321.21 29.99 317.08 24.91 317.08 Z M 24.91 318.33 C 29.32 318.33 32.88 321.89 32.88 326.3 C 32.88 330.71 29.32 334.27 24.91 334.27 C 23.39 334.27 21.99 333.82 20.79 333.09 L 20.77 333.01 C 20.74 333.01 20.71 333.03 20.68 333.03 C 18.44 331.63 16.94 329.15 16.94 326.3 C 16.94 321.89 20.5 318.33 24.91 318.33 Z M 29.27 334.37 C 33.42 335.46 36.69 337.9 38.97 341.1 C 41.28 344.59 41.66 348.13 41.7 351.75 L 8.25 351.74 C 8.31 346.69 8.99 344.14 11.74 340.03 C 13.65 337.55 17.12 335.36 20.58 334.39 C 21.87 335.09 23.33 335.52 24.91 335.52 C 26.49 335.52 27.96 335.08 29.27 334.37 Z" fill="#879196" stroke="none" pointer-events="all" style="fill: light-dark(rgb(135, 145, 150), rgb(106, 115, 119));"/>
        </g>
        <g>
            <g transform="translate(-0.5 -0.5)">
                <switch>
                    <foreignObject style="overflow: visible; text-align: left;" pointer-events="none" width="100%" height="100%" requiredFeatures="http://www.w3.org/TR/SVG11/feature#Extensibility">
                        <div xmlns="http://www.w3.org/1999/xhtml" style="display: flex; align-items: unsafe flex-start; justify-content: unsafe center; width: 1px; height: 1px; padding-top: 360px; margin-left: 25px;">
                            <div style="box-sizing: border-box; font-size: 0; text-align: center; color: #545B64; ">
                                <div style="display: inline-block; font-size: 12px; font-family: &quot;Helvetica&quot;; color: light-dark(#545B64, #9aa0a8); line-height: 1.2; pointer-events: all; white-space: nowrap; ">
                                    users
                                </div>
                            </div>
                        </div>
                    </foreignObject>
                    <text x="25" y="372" fill="#545B64" font-family="&quot;Helvetica&quot;" font-size="12px" text-anchor="middle">
                        users
                    </text>
                </switch>
            </g>
        </g>
        <g>
            <rect x="669" y="634" width="231" height="101" fill="none" stroke="#5a6c86" stroke-dasharray="3 3" pointer-events="all" style="stroke: light-dark(rgb(90, 108, 134), rgb(132, 148, 170));"/>
        </g>
        <g>
            <g transform="translate(-0.5 -0.5)">
                <switch>
                    <foreignObject style="overflow: visible; text-align: left;" pointer-events="none" width="100%" height="100%" requiredFeatures="http://www.w3.org/TR/SVG11/feature#Extensibility">
                        <div xmlns="http://www.w3.org/1999/xhtml" style="display: flex; align-items: unsafe flex-start; justify-content: unsafe center; width: 229px; height: 1px; padding-top: 641px; margin-left: 670px;">
                            <div style="box-sizing: border-box; font-size: 0; text-align: center; color: #5A6C86; ">
                                <div style="display: inline-block; font-size: 12px; font-family: &quot;Helvetica&quot;; color: light-dark(#5A6C86, #8494aa); line-height: 1.2; pointer-events: all; white-space: normal; word-wrap: normal; ">
                                    Warm Pool
                                </div>
                            </div>
                        </div>
                    </foreignObject>
                    <text x="784" y="653" fill="#5A6C86" font-family="&quot;Helvetica&quot;" font-size="12px" text-anchor="middle">
                        Warm Pool
                    </text>
                </switch>
            </g>
        </g>
        <g>
            <path d="M 760 669 L 810 669 L 810 719 L 760 719 Z" fill="#ed7100" stroke="none" pointer-events="all" style="fill: light-dark(rgb(237, 113, 0), rgb(216, 109, 12));"/>
            <path d="M 777.36 701.64 L 777.36 686.36 L 792.64 686.36 L 792.64 701.64 Z M 776.64 703.09 L 793.36 703.09 C 793.77 703.09 794.09 702.77 794.09 702.36 L 794.09 685.64 C 794.09 685.23 793.77 684.91 793.36 684.91 L 776.64 684.91 C 776.23 684.91 775.91 685.23 775.91 685.64 L 775.91 702.36 C 775.91 702.77 776.23 703.09 776.64 703.09 Z M 771.55 707.45 L 771.55 680.55 L 798.45 680.55 L 798.45 707.45 Z M 805 682 L 805 680.55 L 799.91 680.55 L 799.91 679.82 C 799.91 679.42 799.58 679.09 799.18 679.09 L 798.45 679.09 L 798.45 674 L 797 674 L 797 679.09 L 793.36 679.09 L 793.36 674 L 791.91 674 L 791.91 679.09 L 788.27 679.09 L 788.27 674 L 786.82 674 L 786.82 679.09 L 783.18 679.09 L 783.18 674 L 781.73 674 L 781.73 679.09 L 778.09 679.09 L 778.09 674 L 776.64 674 L 776.64 679.09 L 773 679.09 L 773 674 L 771.55 674 L 771.55 679.09 L 770.82 679.09 C 770.42 679.09 770.09 679.42 770.09 679.82 L 770.09 680.55 L 765 680.55 L 765 682 L 770.09 682 L 770.09 685.64 L 765 685.64 L 765 687.09 L 770.09 687.09 L 770.09 690.73 L 765 690.73 L 765 692.18 L 770.09 692.18 L 770.09 695.82 L 765 695.82 L 765 697.27 L 770.09 697.27 L 770.09 700.91 L 765 700.91 L 765 702.36 L 770.09 702.36 L 770.09 706 L 765 706 L 765 707.45 L 770.09 707.45 L 770.09 708.18 C 770.09 708.58 770.42 708.91 770.82 708.91 L 771.55 708.91 L 771.55 714 L 773 714 L 773 708.91 L 776.64 708.91 L 776.64 714 L 778.09 714 L 778.09 708.91 L 781.73 708.91 L 781.73 714 L 783.18 714 L 783.18 708.91 L 786.82 708.91 L 786.82 714 L 788.27 714 L 788.27 708.91 L 791.91 708.91 L 791.91 714 L 793.36 714 L 793.36 708.91 L 797 708.91 L 797 714 L 798.45 714 L 798.45 708.91 L 799.18 708.91 C 799.58 708.91 799.91 708.58 799.91 708.18 L 799.91 707.45 L 805 707.45 L 805 706 L 799.91 706 L 799.91 702.36 L 805 702.36 L 805 700.91 L 799.91 700.91 L 799.91 697.27 L 805 697.27 L 805 695.82 L 799.91 695.82 L 799.91 692.18 L 805 692.18 L 805 690.73 L 799.91 690.73 L 799.91 687.09 L 805 687.09 L 805 685.64 L 799.91 685.64 L 799.91 682 Z" fill="#ffffff" stroke="none" pointer-events="all" style="fill: light-dark(rgb(255, 255, 255), rgb(18, 18, 18));"/>
        </g>
    </g>
    <switch>
        <g requiredFeatures="http://www.w3.org/TR/SVG11/feature#Extensibility"/>
        <a transform="translate(0,-5)" xlink:href="https://www.drawio.com/doc/faq/svg-export-text-problems" target="_blank">
            <text text-anchor="middle" font-size="10px" x="50%" y="100%">
                Text is not SVG - cannot display
            </text>
        </a>
    </switch>
</svg>