<svg xmlns="http://www.w3.org/2000/svg" content="&lt;mxfile host=&quot;app.diagrams.net&quot; agent=&quot;aws-icon-diagram-skill&quot; version=&quot;24.0.0&quot;&gt;&lt;diagram id=&quot;resolution-sequence&quot;&gt;&lt;mxGraphModel dx=&quot;1024&quot; dy=&quot;768&quot; grid=&quot;0&quot; gridSize=&quot;10&quot; guides=&quot;1&quot; tooltips=&quot;1&quot; connect=&quot;1&quot; arrows=&quot;1&quot; fold=&quot;1&quot; page=&quot;1&quot; pageScale=&quot;1&quot; pageWidth=&quot;1501&quot; pageHeight=&quot;979&quot; background=&quot;#ffffff&quot; math=&quot;0&quot; shadow=&quot;0&quot;&gt;&lt;root&gt;&lt;mxCell id=&quot;0&quot;/&gt;&lt;mxCell id=&quot;1&quot; parent=&quot;0&quot;/&gt;&lt;mxCell id=&quot;11&quot; value=&quot;AWS Cloud&quot; style=&quot;points=[[0,0],[0.25,0],[0.5,0],[0.75,0],[1,0],[1,0.25],[1,0.5],[1,0.75],[1,1],[0.75,1],[0.5,1],[0.25,1],[0,1],[0,0.75],[0,0.5],[0,0.25]];outlineConnect=0;gradientColor=none;html=1;whiteSpace=wrap;fontSize=12;fontStyle=0;container=1;pointerEvents=0;collapsible=0;recursiveResize=0;shape=mxgraph.aws4.group;grIcon=mxgraph.aws4.group_aws_cloud_alt;strokeColor=#232F3E;fillColor=none;verticalAlign=top;align=left;spacingLeft=30;fontColor=#232F3E;dashed=0;&quot; parent=&quot;1&quot; vertex=&quot;1&quot;&gt;&lt;mxGeometry x=&quot;30.0&quot; y=&quot;84.0&quot; width=&quot;1441.0&quot; height=&quot;482.0&quot; as=&quot;geometry&quot;/&gt;&lt;/mxCell&gt;&lt;mxCell id=&quot;12&quot; value=&quot;HubVpc — 10.0.0.0/16&quot; style=&quot;points=[[0,0],[0.25,0],[0.5,0],[0.75,0],[1,0],[1,0.25],[1,0.5],[1,0.75],[1,1],[0.75,1],[0.5,1],[0.25,1],[0,1],[0,0.75],[0,0.5],[0,0.25]];outlineConnect=0;gradientColor=none;html=1;whiteSpace=wrap;fontSize=12;fontStyle=0;container=0;pointerEvents=0;collapsible=0;recursiveResize=0;shape=mxgraph.aws4.group;grIcon=mxgraph.aws4.group_vpc;strokeColor=#248814;fillColor=none;verticalAlign=top;align=left;spacingLeft=30;fontColor=#248814;dashed=0;&quot; parent=&quot;1&quot; vertex=&quot;1&quot;&gt;&lt;mxGeometry x=&quot;255.0&quot; y=&quot;130.0&quot; width=&quot;675.0&quot; height=&quot;342.0&quot; as=&quot;geometry&quot;/&gt;&lt;/mxCell&gt;&lt;mxCell id=&quot;13&quot; value=&quot;DevVpc — 10.1.0.0/16&quot; style=&quot;points=[[0,0],[0.25,0],[0.5,0],[0.75,0],[1,0],[1,0.25],[1,0.5],[1,0.75],[1,1],[0.75,1],[0.5,1],[0.25,1],[0,1],[0,0.75],[0,0.5],[0,0.25]];outlineConnect=0;gradientColor=none;html=1;whiteSpace=wrap;fontSize=12;fontStyle=0;container=0;pointerEvents=0;collapsible=0;recursiveResize=0;shape=mxgraph.aws4.group;grIcon=mxgraph.aws4.group_vpc;strokeColor=#DD6B20;fillColor=none;verticalAlign=top;align=left;spacingLeft=30;fontColor=#DD6B20;dashed=0;&quot; parent=&quot;1&quot; vertex=&quot;1&quot;&gt;&lt;mxGeometry x=&quot;1056.0&quot; y=&quot;130.0&quot; width=&quot;395.0&quot; height=&quot;165.0&quot; as=&quot;geometry&quot;/&gt;&lt;/mxCell&gt;&lt;mxCell id=&quot;14&quot; value=&quot;OnPremVpc&quot; style=&quot;rounded=1;whiteSpace=wrap;html=1;fillColor=none;strokeColor=#5A6472;verticalAlign=top;align=left;spacingLeft=10;spacingTop=6;fontSize=12;fontStyle=1;fontColor=#5A6472;dashed=0;&quot; parent=&quot;1&quot; vertex=&quot;1&quot;&gt;&lt;mxGeometry x=&quot;50.0&quot; y=&quot;319.0&quot; width=&quot;170.0&quot; height=&quot;217.0&quot; as=&quot;geometry&quot;/&gt;&lt;/mxCell&gt;&lt;mxCell id=&quot;15&quot; value=&quot;HubTestInstance&quot; style=&quot;sketch=0;outlineConnect=0;fontColor=#232F3E;gradientColor=none;fillColor=#ED7100;strokeColor=none;dashed=0;verticalLabelPosition=bottom;verticalAlign=top;align=center;html=1;fontSize=12;fontStyle=0;aspect=fixed;pointerEvents=1;shape=mxgraph.aws4.ec2;&quot; parent=&quot;1&quot; vertex=&quot;1&quot;&gt;&lt;mxGeometry x=&quot;317.0&quot; y=&quot;182.0&quot; width=&quot;56.0&quot; height=&quot;56.0&quot; as=&quot;geometry&quot;/&gt;&lt;/mxCell&gt;&lt;mxCell id=&quot;16&quot; value=&quot;VPC Resolver&quot; style=&quot;sketch=0;outlineConnect=0;fontColor=#232F3E;gradientColor=none;fillColor=#8C4FFF;strokeColor=none;dashed=0;verticalLabelPosition=bottom;verticalAlign=top;align=center;html=1;fontSize=12;fontStyle=0;aspect=fixed;pointerEvents=1;shape=mxgraph.aws4.route_53_resolver;&quot; parent=&quot;1&quot; vertex=&quot;1&quot;&gt;&lt;mxGeometry x=&quot;482.0&quot; y=&quot;182.0&quot; width=&quot;56.0&quot; height=&quot;56.0&quot; as=&quot;geometry&quot;/&gt;&lt;/mxCell&gt;&lt;mxCell id=&quot;17&quot; value=&quot;PHZ system.example.com&quot; style=&quot;sketch=0;outlineConnect=0;fontColor=#232F3E;gradientColor=none;fillColor=#8C4FFF;strokeColor=none;dashed=0;verticalLabelPosition=bottom;verticalAlign=top;align=center;html=1;fontSize=12;fontStyle=0;aspect=fixed;pointerEvents=1;shape=mxgraph.aws4.hosted_zone;&quot; parent=&quot;1&quot; vertex=&quot;1&quot;&gt;&lt;mxGeometry x=&quot;647.0&quot; y=&quot;182.0&quot; width=&quot;56.0&quot; height=&quot;56.0&quot; as=&quot;geometry&quot;/&gt;&lt;/mxCell&gt;&lt;mxCell id=&quot;18&quot; value=&quot;Outbound Endpoint&quot; style=&quot;sketch=0;outlineConnect=0;fontColor=#232F3E;gradientColor=none;fillColor=#8C4FFF;strokeColor=none;dashed=0;verticalLabelPosition=bottom;verticalAlign=top;align=center;html=1;fontSize=12;fontStyle=0;aspect=fixed;pointerEvents=1;shape=mxgraph.aws4.route_53_resolver;&quot; parent=&quot;1&quot; vertex=&quot;1&quot;&gt;&lt;mxGeometry x=&quot;812.0&quot; y=&quot;182.0&quot; width=&quot;56.0&quot; height=&quot;56.0&quot; as=&quot;geometry&quot;/&gt;&lt;/mxCell&gt;&lt;mxCell id=&quot;19&quot; value=&quot;Transit Gateway&quot; style=&quot;sketch=0;outlineConnect=0;fontColor=#232F3E;gradientColor=none;fillColor=#8C4FFF;strokeColor=none;dashed=0;verticalLabelPosition=bottom;verticalAlign=top;align=center;html=1;fontSize=12;fontStyle=0;aspect=fixed;pointerEvents=1;shape=mxgraph.aws4.transit_gateway;&quot; parent=&quot;1&quot; vertex=&quot;1&quot;&gt;&lt;mxGeometry x=&quot;965.0&quot; y=&quot;182.0&quot; width=&quot;56.0&quot; height=&quot;56.0&quot; as=&quot;geometry&quot;/&gt;&lt;/mxCell&gt;&lt;mxCell id=&quot;20&quot; value=&quot;Inbound Delegation&quot; style=&quot;sketch=0;outlineConnect=0;fontColor=#232F3E;gradientColor=none;fillColor=#8C4FFF;strokeColor=none;dashed=0;verticalLabelPosition=bottom;verticalAlign=top;align=center;html=1;fontSize=12;fontStyle=0;aspect=fixed;pointerEvents=1;shape=mxgraph.aws4.route_53_resolver;&quot; parent=&quot;1&quot; vertex=&quot;1&quot;&gt;&lt;mxGeometry x=&quot;1118.0&quot; y=&quot;182.0&quot; width=&quot;56.0&quot; height=&quot;56.0&quot; as=&quot;geometry&quot;/&gt;&lt;/mxCell&gt;&lt;mxCell id=&quot;21&quot; value=&quot;PHZ dev.system.example.com&quot; style=&quot;sketch=0;outlineConnect=0;fontColor=#232F3E;gradientColor=none;fillColor=#8C4FFF;strokeColor=none;dashed=0;verticalLabelPosition=bottom;verticalAlign=top;align=center;html=1;fontSize=12;fontStyle=0;aspect=fixed;pointerEvents=1;shape=mxgraph.aws4.hosted_zone;&quot; parent=&quot;1&quot; vertex=&quot;1&quot;&gt;&lt;mxGeometry x=&quot;1333.0&quot; y=&quot;182.0&quot; width=&quot;56.0&quot; height=&quot;56.0&quot; as=&quot;geometry&quot;/&gt;&lt;/mxCell&gt;&lt;mxCell id=&quot;22&quot; value=&quot;BIND9&quot; style=&quot;sketch=0;outlineConnect=0;fontColor=#232F3E;gradientColor=none;fillColor=#ED7100;strokeColor=none;dashed=0;verticalLabelPosition=bottom;verticalAlign=top;align=center;html=1;fontSize=12;fontStyle=0;aspect=fixed;pointerEvents=1;shape=mxgraph.aws4.ec2;&quot; parent=&quot;1&quot; vertex=&quot;1&quot;&gt;&lt;mxGeometry x=&quot;107.0&quot; y=&quot;359.0&quot; width=&quot;56.0&quot; height=&quot;56.0&quot; as=&quot;geometry&quot;/&gt;&lt;/mxCell&gt;&lt;mxCell id=&quot;23&quot; value=&quot;Hub Inbound Endpoint&quot; style=&quot;sketch=0;outlineConnect=0;fontColor=#232F3E;gradientColor=none;fillColor=#8C4FFF;strokeColor=none;dashed=0;verticalLabelPosition=bottom;verticalAlign=top;align=center;html=1;fontSize=12;fontStyle=0;aspect=fixed;pointerEvents=1;shape=mxgraph.aws4.route_53_resolver;&quot; parent=&quot;1&quot; vertex=&quot;1&quot;&gt;&lt;mxGeometry x=&quot;482.0&quot; y=&quot;359.0&quot; width=&quot;56.0&quot; height=&quot;56.0&quot; as=&quot;geometry&quot;/&gt;&lt;/mxCell&gt;&lt;mxCell id=&quot;24&quot; value=&quot;① query app.dev.system.example.com&quot; style=&quot;edgeStyle=orthogonalEdgeStyle;rounded=0;html=1;fontSize=10;endArrow=block;endFill=1;strokeColor=#5A6472;&quot; parent=&quot;1&quot; source=&quot;15&quot; target=&quot;16&quot; edge=&quot;1&quot;&gt;&lt;mxGeometry relative=&quot;1&quot; as=&quot;geometry&quot;/&gt;&lt;/mxCell&gt;&lt;mxCell id=&quot;25&quot; value=&quot;② lookup NS+glue for dev.*&quot; style=&quot;edgeStyle=orthogonalEdgeStyle;rounded=0;html=1;fontSize=10;endArrow=block;endFill=1;strokeColor=#5A6472;&quot; parent=&quot;1&quot; source=&quot;16&quot; target=&quot;17&quot; edge=&quot;1&quot;&gt;&lt;mxGeometry relative=&quot;1&quot; as=&quot;geometry&quot;/&gt;&lt;/mxCell&gt;&lt;mxCell id=&quot;26&quot; value=&quot;③ ParentDelegateRule matches&quot; style=&quot;edgeStyle=orthogonalEdgeStyle;rounded=0;html=1;fontSize=10;endArrow=block;endFill=1;strokeColor=#5A6472;&quot; parent=&quot;1&quot; source=&quot;17&quot; target=&quot;18&quot; edge=&quot;1&quot;&gt;&lt;mxGeometry relative=&quot;1&quot; as=&quot;geometry&quot;/&gt;&lt;/mxCell&gt;&lt;mxCell id=&quot;27&quot; value=&quot;④ via Transit Gateway&quot; style=&quot;edgeStyle=orthogonalEdgeStyle;rounded=0;html=1;fontSize=10;endArrow=block;endFill=1;strokeColor=#5A6472;&quot; parent=&quot;1&quot; source=&quot;18&quot; target=&quot;19&quot; edge=&quot;1&quot;&gt;&lt;mxGeometry relative=&quot;1&quot; as=&quot;geometry&quot;/&gt;&lt;/mxCell&gt;&lt;mxCell id=&quot;28&quot; value=&quot;④ to glue IPs 10.1.0.10/.42&quot; style=&quot;edgeStyle=orthogonalEdgeStyle;rounded=0;html=1;fontSize=10;endArrow=block;endFill=1;strokeColor=#5A6472;&quot; parent=&quot;1&quot; source=&quot;19&quot; target=&quot;20&quot; edge=&quot;1&quot;&gt;&lt;mxGeometry relative=&quot;1&quot; as=&quot;geometry&quot;/&gt;&lt;/mxCell&gt;&lt;mxCell id=&quot;29&quot; value=&quot;⑤ answer from dev.system.example.com zone&quot; style=&quot;edgeStyle=orthogonalEdgeStyle;rounded=0;html=1;fontSize=10;endArrow=block;endFill=1;strokeColor=#5A6472;&quot; parent=&quot;1&quot; source=&quot;20&quot; target=&quot;21&quot; edge=&quot;1&quot;&gt;&lt;mxGeometry relative=&quot;1&quot; as=&quot;geometry&quot;/&gt;&lt;/mxCell&gt;&lt;mxCell id=&quot;30&quot; value=&quot;⑥ answer returns → 10.1.200.10&quot; style=&quot;edgeStyle=orthogonalEdgeStyle;rounded=0;html=1;fontSize=10;endArrow=block;endFill=1;strokeColor=#146EB4;&quot; parent=&quot;1&quot; source=&quot;21&quot; target=&quot;15&quot; edge=&quot;1&quot;&gt;&lt;mxGeometry relative=&quot;1&quot; as=&quot;geometry&quot;/&gt;&lt;/mxCell&gt;&lt;mxCell id=&quot;31&quot; value=&quot;Ⓐ forward system.example.com only&quot; style=&quot;edgeStyle=orthogonalEdgeStyle;rounded=0;html=1;fontSize=10;endArrow=block;endFill=1;strokeColor=#2E8B3D;dashed=1;&quot; parent=&quot;1&quot; source=&quot;22&quot; target=&quot;23&quot; edge=&quot;1&quot;&gt;&lt;mxGeometry relative=&quot;1&quot; as=&quot;geometry&quot;/&gt;&lt;/mxCell&gt;&lt;mxCell id=&quot;32&quot; value=&quot;Ⓑ rejoins ②&quot; style=&quot;edgeStyle=orthogonalEdgeStyle;rounded=0;html=1;fontSize=10;endArrow=block;endFill=1;strokeColor=#2E8B3D;dashed=1;&quot; parent=&quot;1&quot; source=&quot;23&quot; target=&quot;16&quot; edge=&quot;1&quot;&gt;&lt;mxGeometry relative=&quot;1&quot; as=&quot;geometry&quot;/&gt;&lt;/mxCell&gt;&lt;/root&gt;&lt;/mxGraphModel&gt;&lt;/diagram&gt;&lt;/mxfile&gt;" xmlns:xlink="http://www.w3.org/1999/xlink" viewBox="0 0 1501 979" width="1501px" height="979px" font-family="Helvetica, Arial, sans-serif">
  <defs>
    <marker id="arrow_232F3E" viewBox="0 0 10 10" refX="9" refY="5" markerWidth="8" markerHeight="8" orient="auto-start-reverse"><path d="M0,0 L10,5 L0,10 z" fill="#232F3E"/></marker><marker id="arrowDashed_232F3E" viewBox="0 0 10 10" refX="9" refY="5" markerWidth="7" markerHeight="7" orient="auto-start-reverse"><path d="M0,0 L10,5 L0,10 z" fill="#232F3E"/></marker><marker id="arrow_146EB4" viewBox="0 0 10 10" refX="9" refY="5" markerWidth="8" markerHeight="8" orient="auto-start-reverse"><path d="M0,0 L10,5 L0,10 z" fill="#146EB4"/></marker><marker id="arrowDashed_146EB4" viewBox="0 0 10 10" refX="9" refY="5" markerWidth="7" markerHeight="7" orient="auto-start-reverse"><path d="M0,0 L10,5 L0,10 z" fill="#146EB4"/></marker><marker id="arrow_2E8B3D" viewBox="0 0 10 10" refX="9" refY="5" markerWidth="8" markerHeight="8" orient="auto-start-reverse"><path d="M0,0 L10,5 L0,10 z" fill="#2E8B3D"/></marker><marker id="arrowDashed_2E8B3D" viewBox="0 0 10 10" refX="9" refY="5" markerWidth="7" markerHeight="7" orient="auto-start-reverse"><path d="M0,0 L10,5 L0,10 z" fill="#2E8B3D"/></marker>
  </defs>
  <style>
    .label { font-size: 12px; font-weight: 600; fill: #16191F; text-anchor: middle; }
    .sublabel { font-size: 9.6px; fill: #5A6472; text-anchor: middle; }
    .laneTitle { font-size: 12.5px; font-weight: 700; }
    .cloudTitle { font-size: 13px; font-weight: 700; fill: #232F3E; }
  </style>
  <rect x="0" y="0" width="1501" height="979" fill="#ffffff"/>
  <text x="30" y="34" font-size="19px" font-weight="700" fill="#16191F">Route 53 PHZ Delegation — DNS Resolution Sequence</text>
  <text x="30" y="54" font-size="12px" fill="#5A6472">dig app.dev.system.example.com: the numbered order Resolver actually evaluates the parent → child delegation chain (not the static topology — see overview.drawio.svg for that)</text>
  <line x1="30" y1="66" x2="1471" y2="66" stroke="#E7157B" stroke-width="2.5"/>
<rect x="30.0" y="84.0" width="1441.0" height="482.0" rx="0" ry="0" fill="none" stroke="#232F3E" stroke-width="1.4" />
<g transform="translate(30.00,54.00)"><path d="M 6.09 37.18 C 6.01 37.18 5.93 37.19 5.85 37.19 C 5.5 37.19 5.15 37.23 4.81 37.32 C 4.53 37.39 4.25 37.49 3.98 37.62 C 3.9 37.65 3.84 37.7 3.79 37.76 C 3.75 37.83 3.74 37.91 3.74 37.99 L 3.74 38.32 C 3.74 38.46 3.79 38.53 3.89 38.53 L 3.99 38.53 L 4.22 38.44 C 4.45 38.35 4.69 38.27 4.94 38.21 C 5.17 38.16 5.41 38.13 5.65 38.13 C 6.04 38.09 6.43 38.2 6.73 38.44 C 6.97 38.74 7.09 39.12 7.05 39.5 L 7.05 39.99 C 6.79 39.93 6.54 39.88 6.29 39.84 C 6.05 39.81 5.81 39.79 5.57 39.79 C 4.98 39.76 4.4 39.94 3.94 40.31 C 3.54 40.65 3.32 41.15 3.34 41.68 C 3.31 42.15 3.49 42.62 3.82 42.96 C 4.18 43.29 4.66 43.46 5.15 43.44 C 5.91 43.45 6.63 43.11 7.11 42.51 C 7.18 42.66 7.24 42.79 7.31 42.91 C 7.38 43.02 7.46 43.12 7.55 43.21 C 7.6 43.27 7.67 43.31 7.75 43.31 C 7.81 43.31 7.87 43.29 7.92 43.25 L 8.34 42.97 C 8.41 42.93 8.46 42.86 8.47 42.77 C 8.47 42.72 8.45 42.67 8.42 42.62 C 8.34 42.47 8.26 42.31 8.21 42.14 C 8.15 41.95 8.12 41.75 8.13 41.55 L 8.14 39.37 C 8.2 38.77 8 38.18 7.59 37.74 C 7.17 37.39 6.64 37.19 6.09 37.18 Z M 19.89 37.19 C 19.78 37.19 19.68 37.19 19.57 37.2 C 19.29 37.2 19 37.24 18.73 37.31 C 18.47 37.38 18.23 37.5 18.02 37.66 C 17.82 37.81 17.66 37.99 17.54 38.21 C 17.42 38.43 17.35 38.67 17.36 38.92 C 17.36 39.27 17.48 39.61 17.69 39.89 C 17.97 40.22 18.34 40.46 18.76 40.56 L 19.72 40.87 C 19.97 40.93 20.2 41.05 20.39 41.22 C 20.51 41.35 20.58 41.51 20.57 41.69 C 20.58 41.94 20.45 42.18 20.23 42.31 C 19.93 42.48 19.6 42.56 19.26 42.54 C 18.99 42.54 18.72 42.51 18.46 42.45 C 18.22 42.4 17.98 42.32 17.75 42.22 L 17.59 42.15 C 17.54 42.14 17.5 42.14 17.46 42.15 C 17.36 42.15 17.31 42.22 17.31 42.36 L 17.31 42.69 C 17.31 42.76 17.32 42.82 17.35 42.89 C 17.4 42.97 17.47 43.03 17.56 43.07 C 17.8 43.19 18.06 43.28 18.32 43.34 C 18.66 43.41 19 43.45 19.35 43.45 L 19.33 43.46 C 19.66 43.45 19.98 43.4 20.29 43.3 C 20.55 43.22 20.8 43.09 21.01 42.92 C 21.21 42.77 21.38 42.57 21.49 42.34 C 21.61 42.1 21.67 41.83 21.66 41.56 C 21.67 41.23 21.56 40.9 21.36 40.63 C 21.09 40.32 20.73 40.09 20.33 39.99 L 19.39 39.69 C 19.13 39.61 18.88 39.49 18.67 39.32 C 18.54 39.2 18.47 39.03 18.47 38.85 C 18.46 38.61 18.58 38.38 18.79 38.25 C 19.06 38.11 19.36 38.05 19.67 38.06 C 20.11 38.06 20.55 38.14 20.96 38.32 C 21.04 38.37 21.12 38.4 21.21 38.41 C 21.31 38.41 21.36 38.34 21.36 38.19 L 21.36 37.88 C 21.37 37.8 21.35 37.72 21.31 37.66 C 21.25 37.59 21.18 37.54 21.11 37.49 L 20.83 37.38 L 20.45 37.27 L 20.01 37.2 C 19.97 37.2 19.93 37.19 19.89 37.19 Z M 16.02 37.36 C 15.94 37.35 15.86 37.38 15.79 37.42 C 15.72 37.5 15.68 37.59 15.66 37.69 L 14.51 42.14 L 13.47 37.71 C 13.45 37.61 13.41 37.52 13.34 37.44 C 13.26 37.39 13.17 37.37 13.07 37.38 L 12.54 37.38 C 12.44 37.37 12.35 37.39 12.27 37.44 C 12.2 37.51 12.15 37.61 12.14 37.71 L 11.09 42.14 L 9.97 37.7 C 9.95 37.6 9.91 37.51 9.84 37.44 C 9.76 37.39 9.67 37.36 9.58 37.37 L 8.92 37.37 C 8.81 37.37 8.76 37.43 8.76 37.54 C 8.77 37.63 8.79 37.72 8.82 37.81 L 10.38 42.95 C 10.4 43.05 10.45 43.14 10.52 43.21 C 10.6 43.26 10.69 43.29 10.78 43.28 L 11.36 43.26 C 11.46 43.27 11.55 43.25 11.63 43.19 C 11.7 43.12 11.74 43.03 11.76 42.93 L 12.79 38.64 L 13.82 42.93 C 13.83 43.03 13.88 43.12 13.95 43.19 C 14.03 43.25 14.12 43.27 14.21 43.26 L 14.79 43.26 C 14.88 43.27 14.97 43.25 15.04 43.2 C 15.11 43.13 15.16 43.03 15.18 42.94 L 16.79 37.79 C 16.84 37.72 16.84 37.63 16.84 37.63 C 16.84 37.59 16.84 37.56 16.84 37.52 C 16.84 37.48 16.82 37.43 16.79 37.4 C 16.76 37.37 16.72 37.35 16.67 37.36 L 16.05 37.36 C 16.04 37.36 16.03 37.36 16.02 37.36 Z M 5.65 40.62 C 5.7 40.62 5.75 40.62 5.8 40.62 L 6.43 40.62 C 6.64 40.64 6.85 40.67 7.06 40.71 L 7.07 41.01 C 7.07 41.21 7.05 41.4 7 41.59 C 6.96 41.75 6.88 41.9 6.77 42.01 C 6.61 42.21 6.39 42.36 6.14 42.44 C 5.91 42.52 5.67 42.56 5.43 42.56 C 5.18 42.6 4.93 42.53 4.73 42.37 C 4.55 42.18 4.46 41.92 4.49 41.66 C 4.47 41.36 4.59 41.08 4.81 40.89 C 5.06 40.72 5.35 40.62 5.65 40.62 Z M 21.04 44.72 C 20.34 44.73 19.51 44.89 18.89 45.33 C 18.69 45.47 18.72 45.63 18.94 45.63 C 19.64 45.54 21.21 45.35 21.5 45.71 C 21.78 46.06 21.19 47.54 20.94 48.21 C 20.86 48.41 21.04 48.49 21.21 48.34 C 22.39 47.36 22.72 45.3 22.46 45 C 22.32 44.85 21.74 44.71 21.04 44.72 Z M 2.65 45.1 C 2.5 45.12 2.42 45.3 2.58 45.44 C 5.29 47.89 8.82 49.23 12.48 49.21 C 15.37 49.22 18.2 48.36 20.59 46.74 C 20.95 46.47 20.64 46.07 20.26 46.23 C 17.87 47.24 15.3 47.76 12.71 47.77 C 9.23 47.78 5.82 46.87 2.81 45.14 C 2.75 45.11 2.7 45.1 2.65 45.1 Z M 0 30 L 25 30 L 25 55 L 0 55 Z" fill="#232f3e" stroke="none"/></g>
<text x="62.0" y="103.0" class="cloudTitle">AWS Cloud</text>
<rect x="255.0" y="130.0" width="675.0" height="342.0" rx="8" ry="8" fill="none" stroke="#248814" stroke-width="1.4" />
<text x="269.0" y="152.0" class="laneTitle" fill="#248814">HubVpc — 10.0.0.0/16</text>
<rect x="1056.0" y="130.0" width="395.0" height="165.0" rx="8" ry="8" fill="none" stroke="#DD6B20" stroke-width="1.4" />
<text x="1070.0" y="152.0" class="laneTitle" fill="#DD6B20">DevVpc — 10.1.0.0/16</text>
<rect x="50.0" y="319.0" width="170.0" height="217.0" rx="8" ry="8" fill="none" stroke="#5A6472" stroke-width="1.4" stroke-dasharray="6,4"/>
<text x="62.0" y="335.0" font-size="11.5px" font-weight="700" fill="#5A6472">OnPremVpc</text>
<text x="993.0" y="140.0" text-anchor="middle" font-size="10.5px" fill="#5A6472">(shared)</text>
<g transform="translate(317.00,182.00)"><rect width="56" height="56" fill="#ED7100" stroke="none"/><g stroke="#ffffff" stroke-width="2.4" fill="none" stroke-linecap="round" stroke-linejoin="round">
  <rect x="16" y="16" width="24" height="24" rx="2"/>
  <path d="M8 22h8M8 34h8M40 22h8M40 34h8M22 8v8M34 8v8M22 48v8M34 48v8"/>
</g></g>
<text class="label" x="345" y="256">HubTestInstance</text>
<text class="sublabel" x="345" y="271">EC2 in HubVpc</text>
<g transform="translate(482.00,182.00)"><rect width="56" height="56" fill="#8C4FFF" stroke="none"/><g stroke="#ffffff" stroke-width="2.4" fill="none" stroke-linecap="round" stroke-linejoin="round">
  <circle cx="28" cy="28" r="16"/>
  <circle cx="28" cy="28" r="5"/>
  <path d="M28 8v4M28 44v4M8 28h4M44 28h4"/>
</g></g>
<text class="label" x="510" y="256">VPC Resolver</text>
<text class="sublabel" x="510" y="271">10.0.0.2 (built-in)</text>
<g transform="translate(647.00,182.00)"><rect width="56" height="56" fill="#8C4FFF" stroke="none"/><g stroke="#ffffff" stroke-width="2.2" fill="none" stroke-linecap="round" stroke-linejoin="round">
  <rect x="12" y="14" width="26" height="30" rx="2"/>
  <line x1="17" y1="22" x2="33" y2="22"/>
  <line x1="17" y1="29" x2="33" y2="29"/>
  <line x1="17" y1="36" x2="27" y2="36"/>
  <circle cx="42" cy="16" r="6"/>
  <path d="M37 16h10M42 11v10"/>
</g></g>
<text class="label" x="675" y="256">PHZ system.example.com</text>
<text class="sublabel" x="675" y="271">holds NS + glue for dev.*</text>
<g transform="translate(812.00,182.00)"><rect width="56" height="56" fill="#8C4FFF" stroke="none"/><g stroke="#ffffff" stroke-width="2.4" fill="none" stroke-linecap="round" stroke-linejoin="round">
  <circle cx="28" cy="28" r="16"/>
  <circle cx="28" cy="28" r="5"/>
  <path d="M28 8v4M28 44v4M8 28h4M44 28h4"/>
</g></g>
<text class="label" x="840" y="256">Outbound Endpoint</text>
<text class="sublabel" x="840" y="271">ParentDelegateRule</text>
<g transform="translate(965.00,182.00)"><rect width="56" height="56" fill="#8C4FFF" stroke="none"/><g stroke="#ffffff" stroke-width="2.4" fill="none" stroke-linecap="round" stroke-linejoin="round">
  <circle cx="28" cy="28" r="13"/>
  <path d="M28 14v28M14 28h28M21.5 21.5l13 13M34.5 21.5L21.5 34.5"/>
</g></g>
<text class="label" x="993" y="256">Transit Gateway</text>
<text class="sublabel" x="993" y="271">Hub ↔ Dev attachment</text>
<g transform="translate(1118.00,182.00)"><rect width="56" height="56" fill="#8C4FFF" stroke="none"/><g stroke="#ffffff" stroke-width="2.4" fill="none" stroke-linecap="round" stroke-linejoin="round">
  <circle cx="28" cy="28" r="16"/>
  <circle cx="28" cy="28" r="5"/>
  <path d="M28 8v4M28 44v4M8 28h4M44 28h4"/>
</g></g>
<text class="label" x="1146" y="256">Inbound Delegation</text>
<text class="sublabel" x="1146" y="271">Endpoint: 10.1.0.10 / .42</text>
<g transform="translate(1333.00,182.00)"><rect width="56" height="56" fill="#8C4FFF" stroke="none"/><g stroke="#ffffff" stroke-width="2.2" fill="none" stroke-linecap="round" stroke-linejoin="round">
  <rect x="12" y="14" width="26" height="30" rx="2"/>
  <line x1="17" y1="22" x2="33" y2="22"/>
  <line x1="17" y1="29" x2="33" y2="29"/>
  <line x1="17" y1="36" x2="27" y2="36"/>
  <circle cx="42" cy="16" r="6"/>
  <path d="M37 16h10M42 11v10"/>
</g></g>
<text class="label" x="1361" y="256">PHZ dev.system.example.com</text>
<text class="sublabel" x="1361" y="271">app.dev.* → A 10.1.200.10</text>
<path d="M 373.0 210.0 L 480.0 210.0" fill="none" stroke="#232F3E" stroke-width="2.0"  marker-end="url(#arrow_232F3E)"/>
<circle cx="427.5" cy="190.0" r="11" fill="#232F3E" stroke="#ffffff" stroke-width="1.5"/><text x="427.5" y="194.2" text-anchor="middle" font-size="12.5px" font-weight="700" fill="#ffffff">1</text>
<path d="M 538.0 210.0 L 645.0 210.0" fill="none" stroke="#232F3E" stroke-width="2.0"  marker-end="url(#arrow_232F3E)"/>
<circle cx="592.5" cy="190.0" r="11" fill="#232F3E" stroke="#ffffff" stroke-width="1.5"/><text x="592.5" y="194.2" text-anchor="middle" font-size="12.5px" font-weight="700" fill="#ffffff">2</text>
<path d="M 703.0 210.0 L 810.0 210.0" fill="none" stroke="#232F3E" stroke-width="2.0"  marker-end="url(#arrow_232F3E)"/>
<circle cx="757.5" cy="190.0" r="11" fill="#232F3E" stroke="#ffffff" stroke-width="1.5"/><text x="757.5" y="194.2" text-anchor="middle" font-size="12.5px" font-weight="700" fill="#ffffff">3</text>
<path d="M 868.0 210.0 L 963.0 210.0" fill="none" stroke="#232F3E" stroke-width="2.0"  marker-end="url(#arrow_232F3E)"/>
<path d="M 1021.0 210.0 L 1116.0 210.0" fill="none" stroke="#232F3E" stroke-width="2.0"  marker-end="url(#arrow_232F3E)"/>
<path d="M 1174.0 210.0 L 1331.0 210.0" fill="none" stroke="#232F3E" stroke-width="2.0"  marker-end="url(#arrow_232F3E)"/>
<circle cx="1253.5" cy="190.0" r="11" fill="#232F3E" stroke="#ffffff" stroke-width="1.5"/><text x="1253.5" y="194.2" text-anchor="middle" font-size="12.5px" font-weight="700" fill="#ffffff">5</text>
<circle cx="993.0" cy="162.0" r="11" fill="#232F3E" stroke="#ffffff" stroke-width="1.5"/><text x="993.0" y="166.2" text-anchor="middle" font-size="12.5px" font-weight="700" fill="#ffffff">4</text>
<path d="M 1361.0 277.0 L 1361.0 313.0 L 345.0 313.0 L 345.0 287.0" fill="none" stroke="#146EB4" stroke-width="2.2"  marker-end="url(#arrow_146EB4)"/>
<circle cx="853.0" cy="299.0" r="11" fill="#146EB4" stroke="#ffffff" stroke-width="1.5"/><text x="853.0" y="303.2" text-anchor="middle" font-size="12.5px" font-weight="700" fill="#ffffff">6</text>
<text x="853.0" y="329.0" text-anchor="middle" font-size="10.5px" fill="#146EB4">answer returns the same path → 10.1.200.10</text>
<g transform="translate(107.00,359.00)"><rect width="56" height="56" fill="#ED7100" stroke="none"/><g stroke="#ffffff" stroke-width="2.4" fill="none" stroke-linecap="round" stroke-linejoin="round">
  <rect x="16" y="16" width="24" height="24" rx="2"/>
  <path d="M8 22h8M8 34h8M40 22h8M40 34h8M22 8v8M34 8v8M22 48v8M34 48v8"/>
</g></g>
<text class="label" x="135.0" y="433">BIND9</text>
<text class="sublabel" x="135.0" y="448">on-premises role, OnPremVpc</text>
<g transform="translate(482.00,359.00)"><rect width="56" height="56" fill="#8C4FFF" stroke="none"/><g stroke="#ffffff" stroke-width="2.4" fill="none" stroke-linecap="round" stroke-linejoin="round">
  <circle cx="28" cy="28" r="16"/>
  <circle cx="28" cy="28" r="5"/>
  <path d="M28 8v4M28 44v4M8 28h4M44 28h4"/>
</g></g>
<text class="label" x="510" y="433">Hub Inbound Endpoint</text>
<text class="sublabel" x="510" y="448">for on-premises queries</text>
<path d="M 163.0 387.0 L 480.0 387.0" fill="none" stroke="#2E8B3D" stroke-width="2.0" stroke-dasharray="6,4" marker-end="url(#arrowDashed_2E8B3D)"/>
<circle cx="322.5" cy="367.0" r="11" fill="#2E8B3D" stroke="#ffffff" stroke-width="1.5"/><text x="322.5" y="371.2" text-anchor="middle" font-size="12.5px" font-weight="700" fill="#ffffff">A</text>
<path d="M 510.0 357.0 L 510.0 287.0" fill="none" stroke="#2E8B3D" stroke-width="2.0" stroke-dasharray="6,4" marker-end="url(#arrowDashed_2E8B3D)"/>
<circle cx="544.0" cy="323.0" r="11" fill="#2E8B3D" stroke="#ffffff" stroke-width="1.5"/><text x="544.0" y="327.2" text-anchor="middle" font-size="12.5px" font-weight="700" fill="#ffffff">B</text>
<text x="135.0" y="474.0" text-anchor="middle" font-size="10.5px" font-style="italic" fill="#2E8B3D">BIND9 forwards only</text>
<text x="135.0" y="488.0" text-anchor="middle" font-size="10.5px" font-style="italic" fill="#2E8B3D">system.example.com —</text>
<text x="135.0" y="502.0" text-anchor="middle" font-size="10.5px" font-style="italic" fill="#2E8B3D">no per-child</text>
<text x="135.0" y="516.0" text-anchor="middle" font-size="10.5px" font-style="italic" fill="#2E8B3D">conditional forwarder</text>
<text x="50.0" y="600.0" font-size="14px" font-weight="700" fill="#16191F">Primary sequence — dig app.dev.system.example.com from HubTestInstance (HubVpc)</text>
<rect x="50.0" y="616.0" width="1401.0" height="189.0" rx="6" ry="6" fill="#F7F8FA" stroke="#D7DBE0" stroke-width="1"/>
<circle cx="72.0" cy="631.8" r="11" fill="#232F3E" stroke="#ffffff" stroke-width="1.5"/><text x="72.0" y="636.0" text-anchor="middle" font-size="12.5px" font-weight="700" fill="#ffffff">1</text>
<line x1="94.0" y1="616.0" x2="94.0" y2="647.5" stroke="#E3E6EA" stroke-width="1"/>
<text x="108.0" y="635.2" font-size="12px" fill="#232F3E">HubTestInstance → 10.0.0.2: query for app.dev.system.example.com</text>
<line x1="50.0" y1="647.5" x2="1451.0" y2="647.5" stroke="#E3E6EA" stroke-width="1"/>
<circle cx="72.0" cy="663.2" r="11" fill="#232F3E" stroke="#ffffff" stroke-width="1.5"/><text x="72.0" y="667.5" text-anchor="middle" font-size="12.5px" font-weight="700" fill="#ffffff">2</text>
<line x1="94.0" y1="647.5" x2="94.0" y2="679.0" stroke="#E3E6EA" stroke-width="1"/>
<text x="108.0" y="666.7" font-size="12px" fill="#232F3E">VPC resolver finds NS+glue for dev.system.example.com inside the system.example.com zone</text>
<line x1="50.0" y1="679.0" x2="1451.0" y2="679.0" stroke="#E3E6EA" stroke-width="1"/>
<circle cx="72.0" cy="694.8" r="11" fill="#232F3E" stroke="#ffffff" stroke-width="1.5"/><text x="72.0" y="699.0" text-anchor="middle" font-size="12.5px" font-weight="700" fill="#ffffff">3</text>
<line x1="94.0" y1="679.0" x2="94.0" y2="710.5" stroke="#E3E6EA" stroke-width="1"/>
<text x="108.0" y="698.2" font-size="12px" fill="#232F3E">ParentDelegateRule (DelegationRecord=system.example.com) matches → hands off via Outbound endpoint to glue IPs 10.1.0.10 / 10.1.0.42</text>
<line x1="50.0" y1="710.5" x2="1451.0" y2="710.5" stroke="#E3E6EA" stroke-width="1"/>
<circle cx="72.0" cy="726.2" r="11" fill="#232F3E" stroke="#ffffff" stroke-width="1.5"/><text x="72.0" y="730.5" text-anchor="middle" font-size="12.5px" font-weight="700" fill="#ffffff">4</text>
<line x1="94.0" y1="710.5" x2="94.0" y2="742.0" stroke="#E3E6EA" stroke-width="1"/>
<text x="108.0" y="729.7" font-size="12px" fill="#232F3E">query reaches DevVpc's Inbound Delegation endpoint via Transit Gateway</text>
<line x1="50.0" y1="742.0" x2="1451.0" y2="742.0" stroke="#E3E6EA" stroke-width="1"/>
<circle cx="72.0" cy="757.8" r="11" fill="#232F3E" stroke="#ffffff" stroke-width="1.5"/><text x="72.0" y="762.0" text-anchor="middle" font-size="12.5px" font-weight="700" fill="#ffffff">5</text>
<line x1="94.0" y1="742.0" x2="94.0" y2="773.5" stroke="#E3E6EA" stroke-width="1"/>
<text x="108.0" y="761.2" font-size="12px" fill="#232F3E">DevVpc resolver answers from its own dev.system.example.com zone: app.dev.system.example.com → A 10.1.200.10</text>
<line x1="50.0" y1="773.5" x2="1451.0" y2="773.5" stroke="#E3E6EA" stroke-width="1"/>
<circle cx="72.0" cy="789.2" r="11" fill="#232F3E" stroke="#ffffff" stroke-width="1.5"/><text x="72.0" y="793.5" text-anchor="middle" font-size="12.5px" font-weight="700" fill="#ffffff">6</text>
<line x1="94.0" y1="773.5" x2="94.0" y2="805.0" stroke="#E3E6EA" stroke-width="1"/>
<text x="108.0" y="792.7" font-size="12px" fill="#232F3E">answer returns the same path: Dev Inbound Delegation EP → TGW → Hub Outbound EP → HubVpc Resolver → HubTestInstance, which prints 10.1.200.10</text>
<text x="50.0" y="845.0" font-size="14px" font-weight="700" fill="#16191F">Secondary sequence — same query, originating from on-premises BIND9 (OnPremVpc)</text>
<rect x="50.0" y="861.0" width="1401.0" height="78.5" rx="6" ry="6" fill="#F7F8FA" stroke="#D7DBE0" stroke-width="1"/>
<circle cx="72.0" cy="876.8" r="11" fill="#2E8B3D" stroke="#ffffff" stroke-width="1.5"/><text x="72.0" y="881.0" text-anchor="middle" font-size="12.5px" font-weight="700" fill="#ffffff">A</text>
<line x1="94.0" y1="861.0" x2="94.0" y2="892.5" stroke="#E3E6EA" stroke-width="1"/>
<text x="108.0" y="880.2" font-size="12px" fill="#232F3E">BIND9 (OnPremVpc) → HubVpc's regular Inbound endpoint (not Outbound) — its only configured forward zone is system.example.com</text>
<line x1="50.0" y1="892.5" x2="1451.0" y2="892.5" stroke="#E3E6EA" stroke-width="1"/>
<circle cx="72.0" cy="916.0" r="11" fill="#2E8B3D" stroke="#ffffff" stroke-width="1.5"/><text x="72.0" y="920.2" text-anchor="middle" font-size="12.5px" font-weight="700" fill="#ffffff">B</text>
<line x1="94.0" y1="892.5" x2="94.0" y2="939.5" stroke="#E3E6EA" stroke-width="1"/>
<text x="108.0" y="911.7" font-size="12px" fill="#232F3E">rejoins the primary flow at step 2: same NS+glue lookup, same ParentDelegateRule, same Transit Gateway hop, same 10.1.200.10 answer — BIND9 never needed to know dev.system.example.com or stg.system.example.com</text>
<text x="108.0" y="927.2" font-size="12px" fill="#232F3E">existed</text>
</svg>