<svg xmlns="http://www.w3.org/2000/svg" content="&lt;mxfile host=&quot;app.diagrams.net&quot; agent=&quot;aws-icon-diagram-skill&quot; version=&quot;24.0.0&quot;&gt;&lt;diagram id=&quot;overview&quot;&gt;&lt;mxGraphModel dx=&quot;1024&quot; dy=&quot;768&quot; grid=&quot;0&quot; gridSize=&quot;10&quot; guides=&quot;1&quot; tooltips=&quot;1&quot; connect=&quot;1&quot; arrows=&quot;1&quot; fold=&quot;1&quot; page=&quot;1&quot; pageScale=&quot;1&quot; pageWidth=&quot;1260&quot; pageHeight=&quot;638&quot; background=&quot;#ffffff&quot; math=&quot;0&quot; shadow=&quot;0&quot;&gt;&lt;root&gt;&lt;mxCell id=&quot;0&quot;/&gt;&lt;mxCell id=&quot;1&quot; parent=&quot;0&quot;/&gt;&lt;mxCell id=&quot;11&quot; value=&quot;Route 53 Resolver Endpoints&quot; style=&quot;text;html=1;strokeColor=none;fillColor=none;align=left;verticalAlign=middle;whiteSpace=wrap;rounded=0;fontSize=19;fontStyle=1;fontColor=#16191F;&quot; parent=&quot;1&quot; vertex=&quot;1&quot;&gt;&lt;mxGeometry x=&quot;30.0&quot; y=&quot;14.0&quot; width=&quot;1200.0&quot; height=&quot;28.0&quot; as=&quot;geometry&quot;/&gt;&lt;/mxCell&gt;&lt;mxCell id=&quot;12&quot; value=&quot;Hybrid DNS resolution between a VPC and on-premises BIND9 via Inbound/Outbound resolver endpoints and VPC peering&quot; style=&quot;text;html=1;strokeColor=none;fillColor=none;align=left;verticalAlign=middle;whiteSpace=wrap;rounded=0;fontSize=12;fontStyle=0;fontColor=#5A6472;&quot; parent=&quot;1&quot; vertex=&quot;1&quot;&gt;&lt;mxGeometry x=&quot;30.0&quot; y=&quot;42.0&quot; width=&quot;1200.0&quot; height=&quot;18.0&quot; as=&quot;geometry&quot;/&gt;&lt;/mxCell&gt;&lt;mxCell id=&quot;13&quot; value=&quot;&quot; style=&quot;rounded=0;whiteSpace=wrap;html=1;fillColor=#E7157B;strokeColor=none;&quot; parent=&quot;1&quot; vertex=&quot;1&quot;&gt;&lt;mxGeometry x=&quot;30.0&quot; y=&quot;66.0&quot; width=&quot;1200.0&quot; height=&quot;2.5&quot; as=&quot;geometry&quot;/&gt;&lt;/mxCell&gt;&lt;mxCell id=&quot;14&quot; value=&quot;AWS Cloud&quot; style=&quot;points=[[0,0],[0.25,0],[0.5,0],[0.75,0],[1,0],[1,0.25],[1,0.5],[1,0.75],[1,1],[0.75,1],[0.5,1],[0.25,1],[0,1],[0,0.75],[0,0.5],[0,0.25]];outlineConnect=0;gradientColor=none;html=1;whiteSpace=wrap;fontSize=12;fontStyle=0;container=1;pointerEvents=0;collapsible=0;recursiveResize=0;shape=mxgraph.aws4.group;grIcon=mxgraph.aws4.group_aws_cloud_alt;strokeColor=#232F3E;fillColor=none;verticalAlign=top;align=left;spacingLeft=30;fontColor=#232F3E;dashed=0;&quot; parent=&quot;1&quot; vertex=&quot;1&quot;&gt;&lt;mxGeometry x=&quot;30.0&quot; y=&quot;84.0&quot; width=&quot;1200.0&quot; height=&quot;514.0&quot; as=&quot;geometry&quot;/&gt;&lt;/mxCell&gt;&lt;mxCell id=&quot;15&quot; value=&quot;VerifyVpc — 10.10.0.0/16 (2 AZ)&quot; style=&quot;points=[[0,0],[0.25,0],[0.5,0],[0.75,0],[1,0],[1,0.25],[1,0.5],[1,0.75],[1,1],[0.75,1],[0.5,1],[0.25,1],[0,1],[0,0.75],[0,0.5],[0,0.25]];outlineConnect=0;gradientColor=none;html=1;whiteSpace=wrap;fontSize=12;fontStyle=0;container=0;pointerEvents=0;collapsible=0;recursiveResize=0;shape=mxgraph.aws4.group;grIcon=mxgraph.aws4.group_vpc;strokeColor=#248814;fillColor=none;verticalAlign=top;align=left;spacingLeft=30;fontColor=#248814;dashed=0;&quot; parent=&quot;1&quot; vertex=&quot;1&quot;&gt;&lt;mxGeometry x=&quot;60.0&quot; y=&quot;108.0&quot; width=&quot;550.0&quot; height=&quot;450.0&quot; as=&quot;geometry&quot;/&gt;&lt;/mxCell&gt;&lt;mxCell id=&quot;16&quot; value=&quot;Public subnet&quot; style=&quot;points=[[0,0],[0.25,0],[0.5,0],[0.75,0],[1,0],[1,0.25],[1,0.5],[1,0.75],[1,1],[0.75,1],[0.5,1],[0.25,1],[0,1],[0,0.75],[0,0.5],[0,0.25]];outlineConnect=0;gradientColor=none;html=1;whiteSpace=wrap;fontSize=12;fontStyle=0;container=1;pointerEvents=0;collapsible=0;recursiveResize=0;shape=mxgraph.aws4.group;grIcon=mxgraph.aws4.group_security_group;grStroke=0;strokeColor=#248814;fillColor=#E9F3E6;verticalAlign=top;align=left;spacingLeft=30;fontColor=#248814;dashed=0;&quot; parent=&quot;1&quot; vertex=&quot;1&quot;&gt;&lt;mxGeometry x=&quot;80.0&quot; y=&quot;172.0&quot; width=&quot;200.0&quot; height=&quot;156.0&quot; as=&quot;geometry&quot;/&gt;&lt;/mxCell&gt;&lt;mxCell id=&quot;17&quot; value=&quot;Route 53 — associated with VerifyVpc&quot; style=&quot;rounded=1;whiteSpace=wrap;html=1;fillColor=none;strokeColor=#8C4FFF;verticalAlign=top;align=left;spacingLeft=10;spacingTop=6;fontSize=12;fontStyle=1;fontColor=#8C4FFF;dashed=0;&quot; parent=&quot;1&quot; vertex=&quot;1&quot;&gt;&lt;mxGeometry x=&quot;370.0&quot; y=&quot;172.0&quot; width=&quot;220.0&quot; height=&quot;156.0&quot; as=&quot;geometry&quot;/&gt;&lt;/mxCell&gt;&lt;mxCell id=&quot;18&quot; value=&quot;Resolver subnets (isolated, 2 AZ) · SG: 53/tcp+udp from VPC CIDR&quot; style=&quot;points=[[0,0],[0.25,0],[0.5,0],[0.75,0],[1,0],[1,0.25],[1,0.5],[1,0.75],[1,1],[0.75,1],[0.5,1],[0.25,1],[0,1],[0,0.75],[0,0.5],[0,0.25]];outlineConnect=0;gradientColor=none;html=1;whiteSpace=wrap;fontSize=12;fontStyle=0;container=1;pointerEvents=0;collapsible=0;recursiveResize=0;shape=mxgraph.aws4.group;grIcon=mxgraph.aws4.group_security_group;grStroke=0;strokeColor=#147EBA;fillColor=#E6F2F8;verticalAlign=top;align=left;spacingLeft=30;fontColor=#147EBA;dashed=0;&quot; parent=&quot;1&quot; vertex=&quot;1&quot;&gt;&lt;mxGeometry x=&quot;80.0&quot; y=&quot;374.0&quot; width=&quot;510.0&quot; height=&quot;158.0&quot; as=&quot;geometry&quot;/&gt;&lt;/mxCell&gt;&lt;mxCell id=&quot;19&quot; value=&quot;OnPremVpc (on-premises role) — 10.20.0.0/16, 1 AZ&quot; style=&quot;points=[[0,0],[0.25,0],[0.5,0],[0.75,0],[1,0],[1,0.25],[1,0.5],[1,0.75],[1,1],[0.75,1],[0.5,1],[0.25,1],[0,1],[0,0.75],[0,0.5],[0,0.25]];outlineConnect=0;gradientColor=none;html=1;whiteSpace=wrap;fontSize=12;fontStyle=0;container=0;pointerEvents=0;collapsible=0;recursiveResize=0;shape=mxgraph.aws4.group;grIcon=mxgraph.aws4.group_vpc;strokeColor=#5A6472;fillColor=none;verticalAlign=top;align=left;spacingLeft=30;fontColor=#5A6472;dashed=0;&quot; parent=&quot;1&quot; vertex=&quot;1&quot;&gt;&lt;mxGeometry x=&quot;830.0&quot; y=&quot;108.0&quot; width=&quot;370.0&quot; height=&quot;450.0&quot; as=&quot;geometry&quot;/&gt;&lt;/mxCell&gt;&lt;mxCell id=&quot;20&quot; value=&quot;Public subnet&quot; style=&quot;points=[[0,0],[0.25,0],[0.5,0],[0.75,0],[1,0],[1,0.25],[1,0.5],[1,0.75],[1,1],[0.75,1],[0.5,1],[0.25,1],[0,1],[0,0.75],[0,0.5],[0,0.25]];outlineConnect=0;gradientColor=none;html=1;whiteSpace=wrap;fontSize=12;fontStyle=0;container=1;pointerEvents=0;collapsible=0;recursiveResize=0;shape=mxgraph.aws4.group;grIcon=mxgraph.aws4.group_security_group;grStroke=0;strokeColor=#5A6472;fillColor=#F0F1F2;verticalAlign=top;align=left;spacingLeft=30;fontColor=#5A6472;dashed=0;&quot; parent=&quot;1&quot; vertex=&quot;1&quot;&gt;&lt;mxGeometry x=&quot;850.0&quot; y=&quot;172.0&quot; width=&quot;330.0&quot; height=&quot;147.0&quot; as=&quot;geometry&quot;/&gt;&lt;/mxCell&gt;&lt;mxCell id=&quot;21&quot; value=&quot;EC2: test instance&quot; style=&quot;sketch=0;outlineConnect=0;fontColor=#232F3E;gradientColor=none;fillColor=#ED7100;strokeColor=none;dashed=0;verticalLabelPosition=bottom;verticalAlign=top;align=center;html=1;fontSize=12;fontStyle=0;aspect=fixed;pointerEvents=1;shape=mxgraph.aws4.ec2;&quot; parent=&quot;1&quot; vertex=&quot;1&quot;&gt;&lt;mxGeometry x=&quot;142.0&quot; y=&quot;206.0&quot; width=&quot;56.0&quot; height=&quot;56.0&quot; as=&quot;geometry&quot;/&gt;&lt;/mxCell&gt;&lt;mxCell id=&quot;22&quot; value=&quot;Private Hosted Zone&quot; style=&quot;sketch=0;outlineConnect=0;fontColor=#232F3E;gradientColor=none;fillColor=#8C4FFF;strokeColor=none;dashed=0;verticalLabelPosition=bottom;verticalAlign=top;align=center;html=1;fontSize=12;fontStyle=0;aspect=fixed;pointerEvents=1;shape=mxgraph.aws4.hosted_zone;&quot; parent=&quot;1&quot; vertex=&quot;1&quot;&gt;&lt;mxGeometry x=&quot;432.0&quot; y=&quot;206.0&quot; width=&quot;56.0&quot; height=&quot;56.0&quot; as=&quot;geometry&quot;/&gt;&lt;/mxCell&gt;&lt;mxCell id=&quot;23&quot; value=&quot;Resolver Inbound Endpoint&quot; style=&quot;sketch=0;outlineConnect=0;fontColor=#232F3E;gradientColor=none;fillColor=#8C4FFF;strokeColor=none;dashed=0;verticalLabelPosition=bottom;verticalAlign=top;align=center;html=1;fontSize=12;fontStyle=0;aspect=fixed;pointerEvents=1;shape=mxgraph.aws4.route_53_resolver;&quot; parent=&quot;1&quot; vertex=&quot;1&quot;&gt;&lt;mxGeometry x=&quot;182.0&quot; y=&quot;408.0&quot; width=&quot;56.0&quot; height=&quot;56.0&quot; as=&quot;geometry&quot;/&gt;&lt;/mxCell&gt;&lt;mxCell id=&quot;24&quot; value=&quot;Resolver Outbound Endpoint&quot; style=&quot;sketch=0;outlineConnect=0;fontColor=#232F3E;gradientColor=none;fillColor=#8C4FFF;strokeColor=none;dashed=0;verticalLabelPosition=bottom;verticalAlign=top;align=center;html=1;fontSize=12;fontStyle=0;aspect=fixed;pointerEvents=1;shape=mxgraph.aws4.route_53_resolver;&quot; parent=&quot;1&quot; vertex=&quot;1&quot;&gt;&lt;mxGeometry x=&quot;432.0&quot; y=&quot;408.0&quot; width=&quot;56.0&quot; height=&quot;56.0&quot; as=&quot;geometry&quot;/&gt;&lt;/mxCell&gt;&lt;mxCell id=&quot;25&quot; value=&quot;EC2: BIND9&quot; style=&quot;sketch=0;outlineConnect=0;fontColor=#232F3E;gradientColor=none;fillColor=#ED7100;strokeColor=none;dashed=0;verticalLabelPosition=bottom;verticalAlign=top;align=center;html=1;fontSize=12;fontStyle=0;aspect=fixed;pointerEvents=1;shape=mxgraph.aws4.ec2;&quot; parent=&quot;1&quot; vertex=&quot;1&quot;&gt;&lt;mxGeometry x=&quot;912.0&quot; y=&quot;206.0&quot; width=&quot;56.0&quot; height=&quot;56.0&quot; as=&quot;geometry&quot;/&gt;&lt;/mxCell&gt;&lt;mxCell id=&quot;26&quot; value=&quot;VPC Peering Connection&quot; style=&quot;sketch=0;outlineConnect=0;fontColor=#232F3E;gradientColor=none;fillColor=#8C4FFF;strokeColor=none;dashed=0;verticalLabelPosition=bottom;verticalAlign=top;align=center;html=1;fontSize=12;fontStyle=0;aspect=fixed;pointerEvents=1;shape=mxgraph.aws4.peering;&quot; parent=&quot;1&quot; vertex=&quot;1&quot;&gt;&lt;mxGeometry x=&quot;692.0&quot; y=&quot;380.0&quot; width=&quot;56.0&quot; height=&quot;56.0&quot; as=&quot;geometry&quot;/&gt;&lt;/mxCell&gt;&lt;mxCell id=&quot;27&quot; value=&quot;dig app.system.example.com (local)&quot; style=&quot;edgeStyle=orthogonalEdgeStyle;rounded=0;html=1;fontSize=10;endArrow=block;endFill=1;strokeColor=#5A6472;&quot; parent=&quot;1&quot; source=&quot;21&quot; target=&quot;22&quot; edge=&quot;1&quot;&gt;&lt;mxGeometry relative=&quot;1&quot; as=&quot;geometry&quot;/&gt;&lt;/mxCell&gt;&lt;mxCell id=&quot;28&quot; value=&quot;dig host1.onprem.example.com&quot; style=&quot;edgeStyle=orthogonalEdgeStyle;rounded=0;html=1;fontSize=10;endArrow=block;endFill=1;strokeColor=#5A6472;&quot; parent=&quot;1&quot; source=&quot;21&quot; target=&quot;24&quot; edge=&quot;1&quot;&gt;&lt;mxGeometry relative=&quot;1&quot; as=&quot;geometry&quot;/&gt;&lt;/mxCell&gt;&lt;mxCell id=&quot;29&quot; value=&quot;FORWARD rule&quot; style=&quot;edgeStyle=orthogonalEdgeStyle;rounded=0;html=1;fontSize=10;endArrow=block;endFill=1;strokeColor=#5A6472;&quot; parent=&quot;1&quot; source=&quot;24&quot; target=&quot;26&quot; edge=&quot;1&quot;&gt;&lt;mxGeometry relative=&quot;1&quot; as=&quot;geometry&quot;/&gt;&lt;/mxCell&gt;&lt;mxCell id=&quot;30&quot; value=&quot;VPC Peering&quot; style=&quot;edgeStyle=orthogonalEdgeStyle;rounded=0;html=1;fontSize=10;endArrow=block;endFill=1;strokeColor=#5A6472;&quot; parent=&quot;1&quot; source=&quot;26&quot; target=&quot;25&quot; edge=&quot;1&quot;&gt;&lt;mxGeometry relative=&quot;1&quot; as=&quot;geometry&quot;/&gt;&lt;/mxCell&gt;&lt;/root&gt;&lt;/mxGraphModel&gt;&lt;/diagram&gt;&lt;/mxfile&gt;" xmlns:xlink="http://www.w3.org/1999/xlink" viewBox="0 0 1260 638" width="1260px" height="638px" font-family="Helvetica, Arial, sans-serif">
  <defs>
    <marker id="arrow" viewBox="0 0 10 10" refX="9" refY="5" markerWidth="8" markerHeight="8" orient="auto-start-reverse">
      <path d="M0,0 L10,5 L0,10 z" fill="#5A6472"/>
    </marker>
    <marker id="arrowDashed" viewBox="0 0 10 10" refX="9" refY="5" markerWidth="7" markerHeight="7" orient="auto-start-reverse">
      <path d="M0,0 L10,5 L0,10 z" fill="#9AA5B1"/>
    </marker>
  </defs>
  <style>
    .label { font-size: 12px; font-weight: 600; fill: #16191F; text-anchor: middle; }
    .sublabel { font-size: 9.6px; fill: #5A6472; text-anchor: middle; }
    .edge { stroke-width: 1.5; fill: none; marker-end: url(#arrow); }
    .edgeDashed { stroke-width: 1.4; fill: none; stroke-dasharray: 5,4; marker-end: url(#arrowDashed); }
    .edgeLabel { font-size: 10px; fill: #40474F; text-anchor: middle; }
    .edgeLabelBg { fill: #ffffff; opacity: 0.9; }
    .laneTitle { font-size: 12.5px; font-weight: 700; }
    .cloudTitle { font-size: 13px; font-weight: 700; fill: #232F3E; }
  </style>
  <rect x="0" y="0" width="1260" height="638" fill="#ffffff"/>
  <text x="30" y="34" font-size="19px" font-weight="700" fill="#16191F">Route 53 Resolver Endpoints</text>
  <text x="30" y="54" font-size="12px" fill="#5A6472">Hybrid DNS resolution between a VPC and on-premises BIND9 via Inbound/Outbound resolver endpoints and VPC peering</text>
  <line x1="30" y1="66" x2="1230" y2="66" stroke="#E7157B" stroke-width="2.5"/>
<rect x="30.0" y="84.0" width="1200.0" height="514.0"  fill="none" stroke="#232F3E" stroke-width="1.4"/>
<g transform="translate(30.00,54.00)"><path d="M 6.09 37.18 C 6.01 37.18 5.93 37.19 5.85 37.19 C 5.5 37.19 5.15 37.23 4.81 37.32 C 4.53 37.39 4.25 37.49 3.98 37.62 C 3.9 37.65 3.84 37.7 3.79 37.76 C 3.75 37.83 3.74 37.91 3.74 37.99 L 3.74 38.32 C 3.74 38.46 3.79 38.53 3.89 38.53 L 3.99 38.53 L 4.22 38.44 C 4.45 38.35 4.69 38.27 4.94 38.21 C 5.17 38.16 5.41 38.13 5.65 38.13 C 6.04 38.09 6.43 38.2 6.73 38.44 C 6.97 38.74 7.09 39.12 7.05 39.5 L 7.05 39.99 C 6.79 39.93 6.54 39.88 6.29 39.84 C 6.05 39.81 5.81 39.79 5.57 39.79 C 4.98 39.76 4.4 39.94 3.94 40.31 C 3.54 40.65 3.32 41.15 3.34 41.68 C 3.31 42.15 3.49 42.62 3.82 42.96 C 4.18 43.29 4.66 43.46 5.15 43.44 C 5.91 43.45 6.63 43.11 7.11 42.51 C 7.18 42.66 7.24 42.79 7.31 42.91 C 7.38 43.02 7.46 43.12 7.55 43.21 C 7.6 43.27 7.67 43.31 7.75 43.31 C 7.81 43.31 7.87 43.29 7.92 43.25 L 8.34 42.97 C 8.41 42.93 8.46 42.86 8.47 42.77 C 8.47 42.72 8.45 42.67 8.42 42.62 C 8.34 42.47 8.26 42.31 8.21 42.14 C 8.15 41.95 8.12 41.75 8.13 41.55 L 8.14 39.37 C 8.2 38.77 8 38.18 7.59 37.74 C 7.17 37.39 6.64 37.19 6.09 37.18 Z M 19.89 37.19 C 19.78 37.19 19.68 37.19 19.57 37.2 C 19.29 37.2 19 37.24 18.73 37.31 C 18.47 37.38 18.23 37.5 18.02 37.66 C 17.82 37.81 17.66 37.99 17.54 38.21 C 17.42 38.43 17.35 38.67 17.36 38.92 C 17.36 39.27 17.48 39.61 17.69 39.89 C 17.97 40.22 18.34 40.46 18.76 40.56 L 19.72 40.87 C 19.97 40.93 20.2 41.05 20.39 41.22 C 20.51 41.35 20.58 41.51 20.57 41.69 C 20.58 41.94 20.45 42.18 20.23 42.31 C 19.93 42.48 19.6 42.56 19.26 42.54 C 18.99 42.54 18.72 42.51 18.46 42.45 C 18.22 42.4 17.98 42.32 17.75 42.22 L 17.59 42.15 C 17.54 42.14 17.5 42.14 17.46 42.15 C 17.36 42.15 17.31 42.22 17.31 42.36 L 17.31 42.69 C 17.31 42.76 17.32 42.82 17.35 42.89 C 17.4 42.97 17.47 43.03 17.56 43.07 C 17.8 43.19 18.06 43.28 18.32 43.34 C 18.66 43.41 19 43.45 19.35 43.45 L 19.33 43.46 C 19.66 43.45 19.98 43.4 20.29 43.3 C 20.55 43.22 20.8 43.09 21.01 42.92 C 21.21 42.77 21.38 42.57 21.49 42.34 C 21.61 42.1 21.67 41.83 21.66 41.56 C 21.67 41.23 21.56 40.9 21.36 40.63 C 21.09 40.32 20.73 40.09 20.33 39.99 L 19.39 39.69 C 19.13 39.61 18.88 39.49 18.67 39.32 C 18.54 39.2 18.47 39.03 18.47 38.85 C 18.46 38.61 18.58 38.38 18.79 38.25 C 19.06 38.11 19.36 38.05 19.67 38.06 C 20.11 38.06 20.55 38.14 20.96 38.32 C 21.04 38.37 21.12 38.4 21.21 38.41 C 21.31 38.41 21.36 38.34 21.36 38.19 L 21.36 37.88 C 21.37 37.8 21.35 37.72 21.31 37.66 C 21.25 37.59 21.18 37.54 21.11 37.49 L 20.83 37.38 L 20.45 37.27 L 20.01 37.2 C 19.97 37.2 19.93 37.19 19.89 37.19 Z M 16.02 37.36 C 15.94 37.35 15.86 37.38 15.79 37.42 C 15.72 37.5 15.68 37.59 15.66 37.69 L 14.51 42.14 L 13.47 37.71 C 13.45 37.61 13.41 37.52 13.34 37.44 C 13.26 37.39 13.17 37.37 13.07 37.38 L 12.54 37.38 C 12.44 37.37 12.35 37.39 12.27 37.44 C 12.2 37.51 12.15 37.61 12.14 37.71 L 11.09 42.14 L 9.97 37.7 C 9.95 37.6 9.91 37.51 9.84 37.44 C 9.76 37.39 9.67 37.36 9.58 37.37 L 8.92 37.37 C 8.81 37.37 8.76 37.43 8.76 37.54 C 8.77 37.63 8.79 37.72 8.82 37.81 L 10.38 42.95 C 10.4 43.05 10.45 43.14 10.52 43.21 C 10.6 43.26 10.69 43.29 10.78 43.28 L 11.36 43.26 C 11.46 43.27 11.55 43.25 11.63 43.19 C 11.7 43.12 11.74 43.03 11.76 42.93 L 12.79 38.64 L 13.82 42.93 C 13.83 43.03 13.88 43.12 13.95 43.19 C 14.03 43.25 14.12 43.27 14.21 43.26 L 14.79 43.26 C 14.88 43.27 14.97 43.25 15.04 43.2 C 15.11 43.13 15.16 43.03 15.18 42.94 L 16.79 37.79 C 16.84 37.72 16.84 37.63 16.84 37.63 C 16.84 37.59 16.84 37.56 16.84 37.52 C 16.84 37.48 16.82 37.43 16.79 37.4 C 16.76 37.37 16.72 37.35 16.67 37.36 L 16.05 37.36 C 16.04 37.36 16.03 37.36 16.02 37.36 Z M 5.65 40.62 C 5.7 40.62 5.75 40.62 5.8 40.62 L 6.43 40.62 C 6.64 40.64 6.85 40.67 7.06 40.71 L 7.07 41.01 C 7.07 41.21 7.05 41.4 7 41.59 C 6.96 41.75 6.88 41.9 6.77 42.01 C 6.61 42.21 6.39 42.36 6.14 42.44 C 5.91 42.52 5.67 42.56 5.43 42.56 C 5.18 42.6 4.93 42.53 4.73 42.37 C 4.55 42.18 4.46 41.92 4.49 41.66 C 4.47 41.36 4.59 41.08 4.81 40.89 C 5.06 40.72 5.35 40.62 5.65 40.62 Z M 21.04 44.72 C 20.34 44.73 19.51 44.89 18.89 45.33 C 18.69 45.47 18.72 45.63 18.94 45.63 C 19.64 45.54 21.21 45.35 21.5 45.71 C 21.78 46.06 21.19 47.54 20.94 48.21 C 20.86 48.41 21.04 48.49 21.21 48.34 C 22.39 47.36 22.72 45.3 22.46 45 C 22.32 44.85 21.74 44.71 21.04 44.72 Z M 2.65 45.1 C 2.5 45.12 2.42 45.3 2.58 45.44 C 5.29 47.89 8.82 49.23 12.48 49.21 C 15.37 49.22 18.2 48.36 20.59 46.74 C 20.95 46.47 20.64 46.07 20.26 46.23 C 17.87 47.24 15.3 47.76 12.71 47.77 C 9.23 47.78 5.82 46.87 2.81 45.14 C 2.75 45.11 2.7 45.1 2.65 45.1 Z M 0 30 L 25 30 L 25 55 L 0 55 Z" fill="#232f3e" stroke="none"/></g>
<text x="62.0" y="103.0" class="cloudTitle">AWS Cloud</text>
<rect x="60.0" y="108.0" width="550.0" height="450.0" rx="8" ry="8" fill="none" stroke="#248814" stroke-width="1.4"/>
<text x="74.0" y="126.0" class="laneTitle" fill="#248814">VerifyVpc — 10.10.0.0/16 (2 AZ)</text>
<rect x="80.0" y="172.0" width="200.0" height="156.0" rx="8" ry="8" fill="#F2F7EE" stroke="#248814" stroke-width="1.4"/>
<text x="94.0" y="190.0" class="laneTitle" fill="#232F3E">Public subnet</text>
<rect x="370.0" y="172.0" width="220.0" height="156.0" rx="8" ry="8" fill="none" stroke="#8C4FFF" stroke-width="1.4"/>
<text x="384.0" y="190.0" class="laneTitle" fill="#232F3E">Route 53 — associated with VerifyVpc</text>
<rect x="80.0" y="374.0" width="510.0" height="158.0" rx="8" ry="8" fill="#F4F6FF" stroke="#147EBA" stroke-width="1.4"/>
<text x="94.0" y="392.0" class="laneTitle" fill="#232F3E">Resolver subnets (isolated, 2 AZ) · SG: 53/tcp+udp from VPC CIDR</text>
<rect x="830.0" y="108.0" width="370.0" height="450.0" rx="8" ry="8" fill="none" stroke="#5A6472" stroke-width="1.4"/>
<text x="844.0" y="126.0" class="laneTitle" fill="#5A6472">OnPremVpc (on-premises role) — 10.20.0.0/16, 1 AZ</text>
<rect x="850.0" y="172.0" width="330.0" height="147.0" rx="8" ry="8" fill="#F2F7EE" stroke="#5A6472" stroke-width="1.4"/>
<text x="864.0" y="190.0" class="laneTitle" fill="#232F3E">Public subnet</text>
<g transform="translate(142.00,206.00)"><rect width="56" height="56" fill="#ED7100" stroke="none"/><g stroke="#ffffff" stroke-width="2.4" fill="none" stroke-linecap="round" stroke-linejoin="round">
  <rect x="16" y="16" width="24" height="24" rx="2"/>
  <path d="M8 22h8M8 34h8M40 22h8M40 34h8M22 8v8M34 8v8M22 48v8M34 48v8"/>
</g></g>
<text class="label" x="170" y="280">EC2: test instance</text>
<text class="sublabel" x="170" y="295">SSM-managed (no key pair)</text>
<g transform="translate(432.00,206.00)"><rect width="56" height="56" fill="#8C4FFF" stroke="none"/><g stroke="#ffffff" stroke-width="2.2" fill="none" stroke-linecap="round" stroke-linejoin="round">
  <rect x="12" y="14" width="26" height="30" rx="2"/>
  <line x1="17" y1="22" x2="33" y2="22"/>
  <line x1="17" y1="29" x2="33" y2="29"/>
  <line x1="17" y1="36" x2="27" y2="36"/>
  <circle cx="42" cy="16" r="6"/>
  <path d="M37 16h10M42 11v10"/>
</g></g>
<text class="label" x="460" y="280">Private Hosted Zone</text>
<text class="sublabel" x="460" y="295">system.example.com</text>
<text class="sublabel" x="460" y="308">record: app.system.example.com</text>
<g transform="translate(182.00,408.00)"><rect width="56" height="56" fill="#8C4FFF" stroke="none"/><g stroke="#ffffff" stroke-width="2.4" fill="none" stroke-linecap="round" stroke-linejoin="round">
  <circle cx="28" cy="28" r="16"/>
  <circle cx="28" cy="28" r="5"/>
  <path d="M28 8v4M28 44v4M8 28h4M44 28h4"/>
</g></g>
<text class="label" x="210" y="482">Resolver Inbound Endpoint</text>
<text class="sublabel" x="210" y="497">Direction: INBOUND /</text>
<text class="sublabel" x="210" y="510">INBOUND_DELEGATION (parameter)</text>
<g transform="translate(432.00,408.00)"><rect width="56" height="56" fill="#8C4FFF" stroke="none"/><g stroke="#ffffff" stroke-width="2.4" fill="none" stroke-linecap="round" stroke-linejoin="round">
  <circle cx="28" cy="28" r="16"/>
  <circle cx="28" cy="28" r="5"/>
  <path d="M28 8v4M28 44v4M8 28h4M44 28h4"/>
</g></g>
<text class="label" x="460" y="482">Resolver Outbound Endpoint</text>
<text class="sublabel" x="460" y="497">Rule type: FORWARD</text>
<text class="sublabel" x="460" y="510">onprem.example.com → OnPremVpc</text>
<g transform="translate(912.00,206.00)"><rect width="56" height="56" fill="#ED7100" stroke="none"/><g stroke="#ffffff" stroke-width="2.4" fill="none" stroke-linecap="round" stroke-linejoin="round">
  <rect x="16" y="16" width="24" height="24" rx="2"/>
  <path d="M8 22h8M8 34h8M40 22h8M40 34h8M22 8v8M34 8v8M22 48v8M34 48v8"/>
</g></g>
<text class="label" x="940" y="280">EC2: BIND9</text>
<text class="sublabel" x="940" y="295">authoritative: onprem.example.com</text>
<g transform="translate(-229.60,170.40) scale(1.6000)"><g>
            <rect x="576" y="131" width="35" height="35" fill="none" stroke="none" pointer-events="all"/>
            <path d="M 598.75 149.8 C 598.75 149.5 598.75 148.69 597.42 148.41 C 597.07 148.34 596.81 148.04 596.79 147.68 C 596.76 147.16 596.55 146.83 596.23 146.83 C 596.08 146.83 595.94 146.91 595.84 147.04 C 595.67 147.27 595.38 147.39 595.09 147.35 C 594.8 147.31 594.56 147.11 594.46 146.83 C 594.3 146.4 594.08 146.03 593.8 145.76 C 593.55 145.51 592.98 145.05 592.16 145.05 C 591.87 145.05 591.56 145.11 591.22 145.25 C 590.48 145.56 589.89 146.48 589.89 147.3 C 589.89 147.4 589.89 147.49 589.9 147.58 C 589.95 147.98 589.7 148.35 589.31 148.45 C 588.6 148.62 588.25 149.07 588.25 149.78 L 588.25 149.9 C 588.29 150.56 589.06 151.16 589.87 151.16 L 597.34 151.16 C 598.75 151.16 598.75 150.14 598.75 149.8 Z M 600.34 149.8 C 600.34 151.93 598.81 152.72 597.46 152.75 C 597.44 152.75 597.43 152.75 597.42 152.75 L 589.87 152.75 C 588.21 152.75 586.74 151.48 586.66 149.98 C 586.66 149.91 586.66 149.85 586.66 149.78 C 586.66 148.56 587.26 147.6 588.3 147.12 C 588.38 145.72 589.34 144.31 590.6 143.79 C 592.13 143.15 593.74 143.47 594.92 144.63 C 595.14 144.85 595.34 145.1 595.51 145.37 C 596.51 145 597.92 145.44 598.29 147 C 599.6 147.45 600.34 148.45 600.34 149.8 Z M 609.41 148.5 C 609.41 139.73 602.27 132.59 593.5 132.59 C 584.73 132.59 577.59 139.73 577.59 148.5 C 577.59 157.27 584.73 164.41 593.5 164.41 C 602.27 164.41 609.41 157.27 609.41 148.5 Z M 611 148.5 C 611 158.15 603.15 166 593.5 166 C 583.85 166 576 158.15 576 148.5 C 576 138.85 583.85 131 593.5 131 C 603.15 131 611 138.85 611 148.5 Z M 583.69 145.61 L 582.57 144.48 L 579.11 147.94 C 578.96 148.09 578.88 148.29 578.88 148.5 C 578.88 148.71 578.96 148.91 579.11 149.06 L 582.57 152.52 L 583.69 151.39 L 581.6 149.3 L 585.54 149.3 L 585.54 147.7 L 581.6 147.7 Z M 607.89 147.94 L 604.43 144.48 L 603.31 145.61 L 605.4 147.7 L 601.44 147.7 L 601.44 149.3 L 605.4 149.3 L 603.31 151.39 L 604.43 152.52 L 607.89 149.06 C 608.04 148.91 608.12 148.71 608.12 148.5 C 608.12 148.29 608.04 148.09 607.89 147.94 Z M 594.3 160.41 L 594.3 154.05 L 592.7 154.05 L 592.7 160.41 L 590.61 158.31 L 589.48 159.43 L 592.94 162.89 C 593.09 163.04 593.29 163.12 593.5 163.12 C 593.71 163.12 593.91 163.04 594.06 162.89 L 597.52 159.43 L 596.39 158.31 Z M 590.61 138.69 L 589.48 137.57 L 592.94 134.11 C 593.25 133.8 593.75 133.8 594.06 134.11 L 597.52 137.57 L 596.39 138.69 L 594.3 136.6 L 594.3 142.35 L 592.7 142.35 L 592.7 136.6 Z" fill="#8c4fff" stroke="none" pointer-events="all" style="fill: light-dark(rgb(140, 79, 255), rgb(177, 125, 255));"/>
        </g></g>
<text class="label" x="720.0" y="454">VPC Peering Connection</text>
<text class="sublabel" x="720.0" y="469">DNS resolution enabled</text>
<path class="edge" d="M 198.0 234.0 L 430.0 234.0" style="stroke:#5A6472"/>
<rect class="edgeLabelBg" x="211.3" y="213.0" width="207.4" height="14"/>
<text class="edgeLabel" x="315.0" y="224.0">dig app.system.example.com (local)</text>
<path class="edge" d="M 142.0 234.0 L 88.0 234.0 L 88.0 356.0 L 460.0 356.0 L 460.0 406.0" style="stroke:#5A6472"/>
<path class="edge" d="M 488.0 436.0 L 690.0 408.0" style="stroke:#5A30B5"/>
<rect class="edgeLabelBg" x="504.6" y="359.0" width="170.8" height="14"/>
<text class="edgeLabel" x="590.0" y="370">dig host1.onprem.example.com</text>
<path class="edge" d="M 750.0 408.0 L 910.0 234.0" style="stroke:#5A30B5"/>
<rect class="edgeLabelBg" x="766.0" y="359.0" width="128.1" height="14"/>
<text class="edgeLabel" x="830.0" y="370">Resolver FORWARD rule</text>
</svg>